<svg id="Layer_1" data-name="Layer 1" xmlns="http://www.w3.org/2000/svg" viewBox="0 0 150 150"><defs><style>.cls-1{fill:#a51318;}</style></defs><title>call</title><path class="cls-1" d="M116.22309,145.4401c-19.72813,0-48.11738-14.19463-74.10077-38.97508C6.75605,72.78286-8.40092,35.2513,6.99664,18.89139a8.64068,8.64068,0,0,1,2.40587-1.68411L29.61181,5.8997a10.37407,10.37407,0,0,1,13.23227,2.887L57.51989,29.7178A9.84991,9.84991,0,0,1,59.204,36.93541a9.39106,9.39106,0,0,1-4.09,6.25526L46.2123,48.96475c-.48117.24059-.48117.48118-.48117.72176a.88382.88382,0,0,0,.24059.72176c6.49584,9.62348,25.021,34.16334,54.37264,51.72619a2.16618,2.16618,0,0,0,2.40587-.24059l6.25525-8.42054a10.16029,10.16029,0,0,1,13.71346-2.40587l21.89341,13.954A9.49365,9.49365,0,0,1,147.74,118.25378l-12.02934,19.24695h0a5.68017,5.68017,0,0,1-1.9247,2.16529C129.21479,143.756,123.20011,145.4401,116.22309,145.4401ZM34.66413,12.87671a1.81865,1.81865,0,0,0-.96235.24059L13.49248,24.42489c-.24058.24058-.24058.24058-.48117.24058C2.90666,35.49189,14.45483,68.45229,48.137,100.45035s68.56727,43.06506,80.11544,33.201l.24058-.24059,12.02934-19.247a1.26833,1.26833,0,0,0-.48117-1.68411l-21.89342-13.954a2.16617,2.16617,0,0,0-2.40586.24059l-6.25526,8.42054a10.414,10.414,0,0,1-13.47286,2.64645C64.97808,91.30805,45.73113,65.56525,38.9947,55.22a9.48383,9.48383,0,0,1-1.44353-7.21761,8.91085,8.91085,0,0,1,4.09-6.01467l8.90172-6.01467c.48118-.24059.48118-.48118.48118-.72176a1.81863,1.81863,0,0,0-.24059-.96235L36.10766,13.35789A2.57946,2.57946,0,0,0,34.66413,12.87671Zm97.4377,122.45874Z"/></svg>