<svg xmlns="http://www.w3.org/2000/svg" xmlns:xlink="http://www.w3.org/1999/xlink" viewBox="0 0 30 30"><defs><style>.cls-1{fill:url(#linear-gradient);}.cls-2{fill:#fff;}</style><linearGradient id="linear-gradient" x1="138.52866" y1="-488.09956" x2="163.27737" y2="-463.35085" gradientTransform="translate(-460.72524 -135.92935) rotate(90)" gradientUnits="userSpaceOnUse"><stop offset="0" stop-color="#4676ed"/><stop offset="0.18543" stop-color="#436de4"/><stop offset="0.48701" stop-color="#3c55cd"/><stop offset="0.86509" stop-color="#302ea8"/><stop offset="1" stop-color="#2b1e99"/></linearGradient></defs><title>face</title><g id="ELEMENTS"><path class="cls-1" d="M.3786,21.9457V8.0017A7.67185,7.67185,0,0,1,8.028.3523H21.972a7.67183,7.67183,0,0,1,7.6493,7.6494l.0001,13.944a7.67211,7.67211,0,0,1-7.6494,7.6494H17.2846L14.83,28.9969l-2.1146.5982L8.028,29.595A7.67183,7.67183,0,0,1,.3786,21.9457Z"/><path class="cls-2" d="M20.6915,19.6804l.6482-4.2265H17.2846V12.7112a2.11319,2.11319,0,0,1,2.3827-2.2834h1.8438V6.8296a22.48352,22.48352,0,0,0-3.273-.2856c-3.3398,0-5.5227,2.0242-5.5227,5.6886v3.2213H9.003v4.2265h3.7124v9.9147h4.5692V19.6804Z"/></g></svg>