<svg xmlns="http://www.w3.org/2000/svg" xmlns:xlink="http://www.w3.org/1999/xlink" viewBox="0 0 30 30"><defs><style>.cls-1{fill:url(#Degradado_sin_nombre_3);}.cls-2{fill:#fff;}</style><linearGradient id="Degradado_sin_nombre_3" x1="166.06295" y1="-478.17542" x2="203.88219" y2="-440.35619" gradientTransform="translate(-166.02259 478.27733)" gradientUnits="userSpaceOnUse"><stop offset="0.0011" stop-color="#fbe18a"/><stop offset="0.20936" stop-color="#fcbb45"/><stop offset="0.37646" stop-color="#f75274"/><stop offset="0.52382" stop-color="#d53692"/><stop offset="0.73944" stop-color="#8f39ce"/><stop offset="1" stop-color="#5b4fe9"/></linearGradient></defs><title>insta</title><g id="ELEMENTS"><path class="cls-1" d="M7.99444.40461h13.944A7.64935,7.64935,0,0,1,29.58778,8.054V21.998a7.64934,7.64934,0,0,1-7.64934,7.64934H7.99437A7.64929,7.64929,0,0,1,.34508,21.998V8.054A7.64935,7.64935,0,0,1,7.99444.40461Z" transform="translate(29.99228 0.05941) rotate(89.99959)"/><path class="cls-2" d="M19.505,9.51515a1.00505,1.00505,0,1,0,1.0051,1.005A1.00506,1.00506,0,0,0,19.505,9.51515Z"/><path class="cls-2" d="M15.03684,10.80405a4.2219,4.2219,0,1,0,4.2219,4.2219A4.22672,4.22672,0,0,0,15.03684,10.80405Zm0,6.9263a2.7044,2.7044,0,1,1,2.7043-2.7044A2.70743,2.70743,0,0,1,15.03684,17.73035Z"/><path class="cls-2" d="M18.38854,23.59775H11.544a5.15522,5.15522,0,0,1-5.1494-5.1494v-6.8448a5.15515,5.15515,0,0,1,5.1494-5.1494h6.8445a5.15541,5.15541,0,0,1,5.1497,5.1494v6.8448A5.15547,5.15547,0,0,1,18.38854,23.59775ZM11.544,8.06705a3.54038,3.54038,0,0,0-3.5366,3.5365v6.8448A3.54046,3.54046,0,0,0,11.544,21.985h6.8445a3.54063,3.54063,0,0,0,3.5368-3.5366v-6.8448a3.54055,3.54055,0,0,0-3.5368-3.5365Z"/></g></svg>