<svg xmlns="http://www.w3.org/2000/svg" xmlns:xlink="http://www.w3.org/1999/xlink" viewBox="0 0 30 30"><defs><style>.cls-1{fill:url(#Degradado_sin_nombre_10);}.cls-2{fill:#fff;}</style><linearGradient id="Degradado_sin_nombre_10" x1="113.63589" y1="-427.99218" x2="138.3846" y2="-403.24347" gradientTransform="translate(-111.02115 430.59154)" gradientUnits="userSpaceOnUse"><stop offset="0" stop-color="#007ab5"/><stop offset="1" stop-color="#0046e5"/></linearGradient></defs><title>link</title><g id="ELEMENTS"><path class="cls-1" d="M8.017.35233H21.96107a7.6494,7.6494,0,0,1,7.6494,7.6494V21.94578a7.6493,7.6493,0,0,1-7.6493,7.6493H8.01707A7.64935,7.64935,0,0,1,.36772,21.94573V8.00163A7.6493,7.6493,0,0,1,8.017.35233Z" transform="translate(29.9628 -0.0154) rotate(90)"/><path class="cls-2" d="M8.85732,12.25063h2.8319v9.0969H8.85732Zm1.4164-4.5205a1.6395,1.6395,0,1,1-1.6416,1.6383,1.63951,1.63951,0,0,1,1.6416-1.6383"/><path class="cls-2" d="M13.46342,12.25063h2.7123v1.2443h.0371a2.97279,2.97279,0,0,1,2.6776-1.4695c2.8628,0,3.3907,1.8828,3.3907,4.3328v4.9893h-2.8256v-4.4227c0-1.0558-.0206-2.4124-1.4696-2.4124-1.4719,0-1.6964,1.1491-1.6964,2.3353v4.4998h-2.8261Z"/></g></svg>