<svg id="Layer_1" data-name="Layer 1" xmlns="http://www.w3.org/2000/svg" viewBox="0 0 150 150"><defs><style>.cls-1{fill:#a51318;}</style></defs><title>location</title><path class="cls-1" d="M77.57919,1.5913c-33.18312,0-60.39806,26.26-60.39806,58.24951,0,25.54384,36.52531,67.7986,52.28132,84.987a10.98944,10.98944,0,0,0,16.23348,0c15.756-16.94965,52.28132-59.44315,52.28132-84.987C137.97724,27.6126,110.76231,1.5913,77.57919,1.5913Zm1.90982,137.507a2.4819,2.4819,0,0,1-3.81965,0c-11.69764-12.65255-50.13277-56.101-50.13277-79.25753,0-27.69239,23.3953-49.894,52.0426-49.894s52.04259,22.44039,52.04259,49.89405C129.62178,82.99738,91.18666,126.20705,79.489,139.09834Z"/><path class="cls-1" d="M77.57919,35.96806a25.78257,25.78257,0,1,0,25.78256,25.78257A25.82737,25.82737,0,0,0,77.57919,35.96806Zm0,42.97095a17.42711,17.42711,0,1,1,17.4271-17.4271A17.52485,17.52485,0,0,1,77.57919,78.939Z"/></svg>