<svg id="Layer_1" data-name="Layer 1" xmlns="http://www.w3.org/2000/svg" viewBox="0 0 150 104.28261"><defs><style>.cls-1{fill:#a51318;}</style></defs><title>mail</title><path class="cls-1" d="M135.23651,1.20147H14.76349A13.98492,13.98492,0,0,0,.78862,15.17634V89.14678a13.98492,13.98492,0,0,0,13.97487,13.97487h120.473a13.98491,13.98491,0,0,0,13.97487-13.97487V15.17634A13.98491,13.98491,0,0,0,135.23651,1.20147Zm0,8.43311a4.84268,4.84268,0,0,1,3.1323.96378L78.37325,46.98122a6.7485,6.7485,0,0,1-6.74649,0L11.63119,10.59836a6.83348,6.83348,0,0,1,3.1323-.96378Zm0,84.813H14.76349a5.60455,5.60455,0,0,1-5.54176-5.54175V19.03147l57.827,35.17813a14.79138,14.79138,0,0,0,15.42055,0l57.82706-35.17812V88.90584A4.941,4.941,0,0,1,135.23651,94.44758Z"/></svg>