<svg xmlns="http://www.w3.org/2000/svg" xmlns:xlink="http://www.w3.org/1999/xlink" viewBox="0 0 42.06314 42.06314"><defs><style>.cls-1{fill:url(#Degradado_sin_nombre_5);}.cls-2{fill:#fff;fill-rule:evenodd;}</style><linearGradient id="Degradado_sin_nombre_5" x1="432.70096" y1="-281.5974" x2="467.73431" y2="-246.56405" gradientTransform="translate(-429.28994 285.11232)" gradientUnits="userSpaceOnUse"><stop offset="0" stop-color="#fc4d3f"/><stop offset="1" stop-color="#cd083f"/></linearGradient></defs><title>pinterest</title><g id="ELEMENTS"><path class="cls-1" d="M11.05832.3341H30.79707A10.82806,10.82806,0,0,1,41.62513,11.16216V30.90084A10.8282,10.8282,0,0,1,30.79693,41.729H11.05824a10.828,10.828,0,0,1-10.828-10.828V11.16216A10.82806,10.82806,0,0,1,11.05832.3341Z" transform="translate(41.95927 0.10387) rotate(90)"/><path class="cls-2" d="M19.33565,25.53327c-.02124.0722-.04091.13292-.05677.19379-.92252,3.61507-1.02486,4.41783-1.97315,6.09641A18.79869,18.79869,0,0,1,15.781,34.101c-.06384.08182-.12316.18757-.25042.16166-.139-.02973-.14976-.15458-.16491-.266a19.4579,19.4579,0,0,1-.199-3.30874c.04785-1.44472.22664-1.94059,2.08881-9.77149a.5427.5427,0,0,0-.04332-.32642,5.51079,5.51079,0,0,1-.14453-3.6598c.843-2.67088,3.871-2.87572,4.4007-.67168.326,1.363-.53678,3.14679-1.19926,5.78342-.54853,2.17572,2.01208,3.72222,4.20111,2.134,2.01845-1.464,2.802-4.974,2.6529-7.46157-.29344-4.95971-5.73189-6.03172-9.18261-4.43454-3.95565,1.82891-4.85481,6.73228-3.06894,8.973.22663.28524.401.45921.32629.74827-.11509.44873-.21658.90072-.34045,1.347a.47716.47716,0,0,1-.70594.31638,4.04779,4.04779,0,0,1-1.65182-1.23763c-1.51691-1.87817-1.95078-5.593.05464-8.73813A10.49877,10.49877,0,0,1,22.6819,9.22245a8.57691,8.57691,0,0,1,7.8885,7.08489,11.79467,11.79467,0,0,1-2.16567,8.28855c-2.56981,3.18714-6.73553,3.39834-8.65744,1.44217C19.59908,25.88829,19.48046,25.71248,19.33565,25.53327Z"/></g></svg>