<svg xmlns="http://www.w3.org/2000/svg" xmlns:xlink="http://www.w3.org/1999/xlink" viewBox="0 0 30 30"><defs><style>.cls-1{fill:url(#Degradado_sin_nombre_4);}.cls-2{fill:#fff;}</style><linearGradient id="Degradado_sin_nombre_4" x1="198.63694" y1="-463.27415" x2="223.38561" y2="-438.52549" gradientTransform="translate(-195.95439 465.91065)" gradientUnits="userSpaceOnUse"><stop offset="0" stop-color="#3cf"/><stop offset="1" stop-color="#337fff"/></linearGradient></defs><title>twitter</title><g id="ELEMENTS"><path class="cls-1" d="M8.08489.38948h13.944a7.6493,7.6493,0,0,1,7.6493,7.6493v13.944a7.6494,7.6494,0,0,1-7.6494,7.6494H8.08489a7.6493,7.6493,0,0,1-7.6493-7.6493V8.03878A7.6493,7.6493,0,0,1,8.08489.38948Z" transform="translate(30.06771 -0.04606) rotate(90)"/><path class="cls-2" d="M23.13534,10.00093a6.58059,6.58059,0,0,1-1.6127.4598c.2594-.0436.6403-.5131.793-.703a2.95405,2.95405,0,0,0,.5353-.9761c.014-.0278.0242-.0628-.0036-.0839a.09163.09163,0,0,0-.0854.0072,8.23144,8.23144,0,0,1-1.9122.7316.12781.12781,0,0,1-.1318-.0349,1.56039,1.56039,0,0,0-.1672-.1709,3.38112,3.38112,0,0,0-.9263-.5675,3.22433,3.22433,0,0,0-1.4205-.2288,3.39637,3.39637,0,0,0-1.3478.3807,3.473,3.473,0,0,0-1.0872.888,3.33817,3.33817,0,0,0-.6493,1.3005,3.52176,3.52176,0,0,0-.0344,1.373c.0103.0767.0035.0871-.066.0767A10.212,10.212,0,0,1,8.449,9.10913c-.0767-.0874-.1183-.0874-.1811.0067a3.33137,3.33137,0,0,0,.5678,3.9365c.1288.122.2612.244.4038.3553a3.35021,3.35021,0,0,1-1.2678-.3553c-.0767-.0485-.1152-.0207-.122.0663a2.00389,2.00389,0,0,0,.0208.3764,3.36929,3.36929,0,0,0,2.0764,2.6857,1.95866,1.95866,0,0,0,.4213.1288,3.754,3.754,0,0,1-1.2435.0385c-.0906-.0174-.1252.0279-.0906.1149a3.49753,3.49753,0,0,0,2.6126,2.1878c.1184.0207.2369.0207.3557.0485-.0072.0107-.0143.0107-.0211.021a4.13814,4.13814,0,0,1-1.7842.9457,6.39023,6.39023,0,0,1-2.7098.3468c-.1457-.0214-.1763-.0198-.2158,0-.04.0247-.0051.0595.0417.0973.1848.122.3728.2301.5644.3346a8.94621,8.94621,0,0,0,1.8114.7246,9.6477,9.6477,0,0,0,9.3664-2.1901,9.82793,9.82793,0,0,0,2.5922-7.1704c0-.1031.1218-.16.1941-.2144a6.3336,6.3336,0,0,0,1.2747-1.3256.4029.4029,0,0,0,.0845-.254v-.0138C23.20094,9.95883,23.20014,9.97143,23.13534,10.00093Z"/></g></svg>