<svg xmlns="http://www.w3.org/2000/svg" xmlns:xlink="http://www.w3.org/1999/xlink" viewBox="0 0 30 30"><defs><style>.cls-1{fill:url(#Degradado_sin_nombre_7);}.cls-2{fill:#fff;}</style><linearGradient id="Degradado_sin_nombre_7" x1="156.13782" y1="-445.65913" x2="180.88655" y2="-420.91039" gradientTransform="translate(-153.47289 448.2805)" gradientUnits="userSpaceOnUse"><stop offset="0" stop-color="red"/><stop offset="1" stop-color="#850000"/></linearGradient></defs><title>utube</title><g id="ELEMENTS"><path class="cls-1" d="M8.06723.37437H22.01128a7.6494,7.6494,0,0,1,7.6494,7.6494v13.944a7.64931,7.64931,0,0,1-7.64931,7.64931H8.06729A7.64936,7.64936,0,0,1,.41793,21.96777V8.02367A7.6493,7.6493,0,0,1,8.06723.37437Z" transform="translate(30.03506 -0.04356) rotate(90)"/><path class="cls-2" d="M22.86738,12.86962a3.511,3.511,0,0,0-3.511-3.511h-8.978a3.511,3.511,0,0,0-3.511,3.511v4.178a3.511,3.511,0,0,0,3.511,3.511h8.978a3.511,3.511,0,0,0,3.511-3.511Zm-5.2799,2.4021-4.026,1.9918c-.1578.0854-.694-.0289-.694-.2084v-4.0885c0-.1818.54065-.2959.69855-.2059l3.8538,2.0967C17.58138,14.94942,17.751,15.18322,17.58748,15.27172Z"/></g></svg>