<svg id="Layer_1" data-name="Layer 1" xmlns="http://www.w3.org/2000/svg" viewBox="0 0 24 24"><defs><style>.cls-1{fill-rule:evenodd;}</style></defs><title>category</title><path class="cls-1" d="M6.5,3.58824a14.37235,14.37235,0,0,0-2.448.31112.191.191,0,0,0-.15264.15264A14.37235,14.37235,0,0,0,3.58824,6.5a14.37235,14.37235,0,0,0,.31112,2.448.191.191,0,0,0,.15264.15264A14.37235,14.37235,0,0,0,6.5,9.41177a14.37235,14.37235,0,0,0,2.448-.31113A.191.191,0,0,0,9.10064,8.948,14.37235,14.37235,0,0,0,9.41177,6.5a14.37235,14.37235,0,0,0-.31113-2.448A.191.191,0,0,0,8.948,3.89936,14.37235,14.37235,0,0,0,6.5,3.58824ZM3.7414,2.34179A15.81636,15.81636,0,0,1,6.5,2a15.81636,15.81636,0,0,1,2.7586.34179A1.77918,1.77918,0,0,1,10.6582,3.7414,15.81342,15.81342,0,0,1,11,6.5a15.81342,15.81342,0,0,1-.3418,2.7586,1.77916,1.77916,0,0,1-1.3996,1.3996A15.81342,15.81342,0,0,1,6.5,11a15.81342,15.81342,0,0,1-2.7586-.3418A1.77918,1.77918,0,0,1,2.34179,9.2586,15.81636,15.81636,0,0,1,2,6.5a15.81636,15.81636,0,0,1,.34179-2.7586A1.77921,1.77921,0,0,1,3.7414,2.34179Z"/><path class="cls-1" d="M6.5,14.5882a14.36936,14.36936,0,0,0-2.448.3112.191.191,0,0,0-.15264.1526A14.37209,14.37209,0,0,0,3.58824,17.5a14.37209,14.37209,0,0,0,.31112,2.448.191.191,0,0,0,.15264.1526,14.36936,14.36936,0,0,0,2.448.3112,14.36936,14.36936,0,0,0,2.448-.3112.191.191,0,0,0,.15264-.1526A14.37209,14.37209,0,0,0,9.41177,17.5a14.37209,14.37209,0,0,0-.31113-2.448.191.191,0,0,0-.15264-.1526A14.36936,14.36936,0,0,0,6.5,14.5882ZM3.7414,13.3418A15.81342,15.81342,0,0,1,6.5,13a15.81342,15.81342,0,0,1,2.7586.3418,1.77919,1.77919,0,0,1,1.3996,1.3996A15.81417,15.81417,0,0,1,11,17.5a15.81417,15.81417,0,0,1-.3418,2.7586,1.7792,1.7792,0,0,1-1.3996,1.3996A15.81342,15.81342,0,0,1,6.5,22a15.81342,15.81342,0,0,1-2.7586-.3418,1.77921,1.77921,0,0,1-1.39961-1.3996A15.8171,15.8171,0,0,1,2,17.5a15.8171,15.8171,0,0,1,.34179-2.7586A1.77922,1.77922,0,0,1,3.7414,13.3418Z"/><path class="cls-1" d="M17.5,3.58824a14.37209,14.37209,0,0,0-2.448.31112.191.191,0,0,0-.1526.15264A14.36936,14.36936,0,0,0,14.5882,6.5a14.36936,14.36936,0,0,0,.3112,2.448.191.191,0,0,0,.1526.15264,14.37209,14.37209,0,0,0,2.448.31113,14.37209,14.37209,0,0,0,2.448-.31113.191.191,0,0,0,.1526-.15264A14.36936,14.36936,0,0,0,20.4118,6.5a14.36936,14.36936,0,0,0-.3112-2.448.191.191,0,0,0-.1526-.15264A14.37209,14.37209,0,0,0,17.5,3.58824ZM14.7414,2.34179A15.8171,15.8171,0,0,1,17.5,2a15.8171,15.8171,0,0,1,2.7586.34179A1.77922,1.77922,0,0,1,21.6582,3.7414,15.81342,15.81342,0,0,1,22,6.5a15.81342,15.81342,0,0,1-.3418,2.7586,1.77919,1.77919,0,0,1-1.3996,1.3996A15.81417,15.81417,0,0,1,17.5,11a15.81417,15.81417,0,0,1-2.7586-.3418,1.7792,1.7792,0,0,1-1.3996-1.3996A15.81342,15.81342,0,0,1,13,6.5a15.81342,15.81342,0,0,1,.3418-2.7586A1.77921,1.77921,0,0,1,14.7414,2.34179Z"/><path class="cls-1" d="M17.5,14.5882a14.3691,14.3691,0,0,0-2.448.3112.191.191,0,0,0-.1526.1526,14.3691,14.3691,0,0,0-.3112,2.448,14.3691,14.3691,0,0,0,.3112,2.448.191.191,0,0,0,.1526.1526,14.3691,14.3691,0,0,0,2.448.3112,14.3691,14.3691,0,0,0,2.448-.3112.191.191,0,0,0,.1526-.1526,14.3691,14.3691,0,0,0,.3112-2.448,14.3691,14.3691,0,0,0-.3112-2.448.191.191,0,0,0-.1526-.1526A14.3691,14.3691,0,0,0,17.5,14.5882Zm-2.7586-1.2464A15.81417,15.81417,0,0,1,17.5,13a15.81417,15.81417,0,0,1,2.7586.3418,1.77922,1.77922,0,0,1,1.3996,1.3996A15.81417,15.81417,0,0,1,22,17.5a15.81417,15.81417,0,0,1-.3418,2.7586,1.77922,1.77922,0,0,1-1.3996,1.3996A15.81417,15.81417,0,0,1,17.5,22a15.81417,15.81417,0,0,1-2.7586-.3418,1.77922,1.77922,0,0,1-1.3996-1.3996A15.81417,15.81417,0,0,1,13,17.5a15.81417,15.81417,0,0,1,.3418-2.7586A1.77922,1.77922,0,0,1,14.7414,13.3418Z"/></svg>