<svg id="Layer_1" data-name="Layer 1" xmlns="http://www.w3.org/2000/svg" viewBox="0 0 300.68621 212.86957"><defs><style>.cls-1{fill:#003dd9;}.cls-2{fill:#fff;}</style></defs><title>coming-soon</title><polygon class="cls-1" points="233.614 133.917 129.676 150.206 25.739 166.494 14.653 154.229 3.568 141.963 16.366 120.065 29.165 98.168 138.977 80.564 248.79 62.959 241.202 98.438 233.614 133.917"/><polygon class="cls-2" points="115.23 29.81 197.698 16.886 280.165 3.963 288.961 13.694 297.756 23.426 287.602 40.801 277.447 58.175 190.318 72.143 103.189 86.111 109.209 57.96 115.23 29.81"/><path class="cls-1" d="M135.72688,71.41606a11.95369,11.95369,0,0,1-3.7949.1045,5.0689,5.0689,0,0,1-2.502-1.0273,4.3315,4.3315,0,0,1-1.3261-2.0635,8.62635,8.62635,0,0,1-.3682-2.8633,21.73,21.73,0,0,1,.4453-3.5918l2.2822-11.455a26.28011,26.28011,0,0,1,1.045-3.8428,16.79457,16.79457,0,0,1,1.582-3.2315,11.36429,11.36429,0,0,1,2.249-2.622,12.5864,12.5864,0,0,1,3.0723-1.8838,16.44724,16.44724,0,0,1,4.0146-1.1572,11.78285,11.78285,0,0,1,4.2461-.0635,3.94031,3.94031,0,0,1,2.4864,1.4521,5.25564,5.25564,0,0,1,.9375,2.7119,14.12352,14.12352,0,0,1-.3125,3.876l-.5606,2.8145-6.0078.9853.5566-2.7949a13.07274,13.07274,0,0,0,.3907-3.2646q-.2052-1.5777-2.2666-1.3545c-.1104.0185-.2198.0361-.3301.0546a5.76465,5.76465,0,0,0-1.4082.4034,3.48746,3.48746,0,0,0-1.0723.7216,6.03917,6.03917,0,0,0-.7627.9209,5.42013,5.42013,0,0,0-.5674,1.1963q-.25485.72225-.4033,1.3213-.1494.5991-.331,1.5117l-2.7715,13.9131q-.5757,2.893-.0674,3.9991.5097,1.10445,2.4492.7871a5.13747,5.13747,0,0,0,1.1963-.3399,4.64659,4.64659,0,0,0,.9219-.5166,3.11471,3.11471,0,0,0,.708-.749,7.28716,7.28716,0,0,0,.5185-.8516,6.0792,6.0792,0,0,0,.3897-1.0517q.19185-.6621.293-1.1211.10095-.457.2597-1.25l.584-2.9336,6.0068-.9854-.5361,2.6953a22.13881,22.13881,0,0,1-.9277,3.3545,14.73171,14.73171,0,0,1-1.4678,2.9053,11.02656,11.02656,0,0,1-2.1084,2.416,11.73381,11.73381,0,0,1-2.9092,1.7715A15.89932,15.89932,0,0,1,135.72688,71.41606Z"/><path class="cls-1" d="M158.60088,67.66416q-5.2851.86715-7.0273-1.5127-1.74315-2.3775-.6856-7.6904l2.4161-12.1299a21.67994,21.67994,0,0,1,1.4199-4.6231,13.89325,13.89325,0,0,1,2.3252-3.6025,11.3641,11.3641,0,0,1,3.4853-2.6123,16.86539,16.86539,0,0,1,4.7647-1.4629q5.26455-.8643,7.0254,1.4736,1.7607,2.3379.7148,7.5899l-2.416,12.1299a21.45447,21.45447,0,0,1-1.4277,4.6142,14.47328,14.47328,0,0,1-2.3467,3.6641,11.57564,11.57564,0,0,1-3.499,2.6728A16.26789,16.26789,0,0,1,158.60088,67.66416Zm-.623-4.4414a3.79086,3.79086,0,0,0,1.5068.0019,5.27894,5.27894,0,0,0,1.5996-.5117,4.52145,4.52145,0,0,0,1.1563-.8418,4.65757,4.65757,0,0,0,.8164-1.1885,9.059,9.059,0,0,0,.5566-1.3955q.20655-.6855.3926-1.6162l2.9727-14.9248a13.67245,13.67245,0,0,0,.2705-1.9619,3.81894,3.81894,0,0,0-.1875-1.416,1.34968,1.34968,0,0,0-.8741-.8731,3.707,3.707,0,0,0-1.7685-.0449,5.60156,5.60156,0,0,0-1.917.6494,3.76668,3.76668,0,0,0-1.293,1.2286,7.30271,7.30271,0,0,0-.7724,1.5742,15.19867,15.19867,0,0,0-.5186,2.0019l-2.9726,14.9248a16.08448,16.08448,0,0,0-.2481,1.5928,5.83742,5.83742,0,0,0,.0215,1.3008,1.9429,1.9429,0,0,0,.3711.9931A1.60442,1.60442,0,0,0,157.97788,63.22276Z"/><path class="cls-1" d="M173.04818,64.91026l7.1016-32.9522,6.4004-1.0498.3554,22.2774,9.6983-23.9258,6.2548-1.0264-5.9668,32.7657-4.707.7714,4.0957-22.5654-9.4424,23.4434-3.6533.5986-.4736-21.8926-4.8945,22.7735Z"/><path class="cls-1" d="M202.13608,60.13876l6.5439-32.8604,6.1524-1.0097-6.544,32.8603Z"/><path class="cls-1" d="M213.55208,58.26576l6.544-32.8604,4.2939-.7041,4.6748,17.2344,3.707-18.6094,5.1612-.8467L231.389,55.34l-4.0879.6709-4.5683-18.1739-3.8955,19.5616Z"/><path class="cls-1" d="M244.98958,53.53136q-4.85295.79545-6.4092-1.7676-1.55565-2.5635-.4472-8.1318l2.1318-10.7022a27.06329,27.06329,0,0,1,1.4385-4.9619,15.21593,15.21593,0,0,1,2.2744-3.8535,10.99682,10.99682,0,0,1,3.4756-2.8135,16.00233,16.00233,0,0,1,4.8613-1.5449q5.07855-.83355,6.8115,1.1924,1.733,2.02725.7666,6.8828l-.3193,1.6045-5.9678.9785.3399-1.7041q.21675-1.0899.3037-1.7754a6.51246,6.51246,0,0,0,.0312-1.3564,1.61889,1.61889,0,0,0-.3525-.9874,1.69726,1.69726,0,0,0-.8897-.4482,4.10069,4.10069,0,0,0-1.5215.0195,5.2384,5.2384,0,0,0-1.2822.3731,5.38828,5.38828,0,0,0-1.001.5674,3.41067,3.41067,0,0,0-.7705.8066,7.17552,7.17552,0,0,0-.5683.9463,7.71962,7.71962,0,0,0-.4258,1.1338c-.1367.457-.2471.8594-.3291,1.2041q-.1245.52-.2852,1.332l-2.6416,13.2588a8.35711,8.35711,0,0,0-.1015,4.2256q.48915,1.2525,2.6357.8994a5.14771,5.14771,0,0,0,1.9502-.7129,4.73686,4.73686,0,0,0,1.4209-1.4209,9.16637,9.16637,0,0,0,.9736-1.9814,18.8964,18.8964,0,0,0,.6866-2.5957l.5361-2.6953-3.6943.6054.7695-3.8642,9.3105-1.5274-3.3232,16.6875-4.0459.6641.208-3.2549A8.96664,8.96664,0,0,1,244.98958,53.53136Z"/><path class="cls-1" d="M115.03448,173.84966a5.4984,5.4984,0,0,1-1.6787.0586,2.12246,2.12246,0,0,1-1.0742-.4306,1.72615,1.72615,0,0,1-.5469-.9121,4.28853,4.28853,0,0,1-.1211-1.3018,11.526,11.526,0,0,1,.2285-1.6885l1.8848-9.4638,2.6231-.4297-1.9385,9.7304q-.0996.49815-.1416.8467a4.46672,4.46672,0,0,0-.0313.7197,1.23991,1.23991,0,0,0,.1319.5772.74989.74989,0,0,0,.3798.3115,1.23768,1.23768,0,0,0,.6719.0391,1.95792,1.95792,0,0,0,.7334-.2696,2.03453,2.03453,0,0,0,.5244-.4599,2.88887,2.88887,0,0,0,.3741-.6602,5.31122,5.31122,0,0,0,.2627-.7549q.09225-.3501.1933-.8584l1.9375-9.7304,2.624-.4297-1.8847,9.4639a13.64487,13.64487,0,0,1-.4522,1.7246,7.5702,7.5702,0,0,1-.666,1.4316,4.90207,4.90207,0,0,1-.9541,1.1582,5.134,5.134,0,0,1-1.3203.8233A7.21534,7.21534,0,0,1,115.03448,173.84966Z"/><path class="cls-1" d="M121.33628,172.64946l2.8389-14.2519,1.8623-.3057,2.0273,7.4756,1.6074-8.0713,2.2383-.3672-2.8379,14.252-1.7724.29-1.9815-7.8808-1.6894,8.4834Z"/><path class="cls-1" d="M131.29328,171.01666l2.8379-14.2519,3.4561-.5674a7.87312,7.87312,0,0,1,2.1963-.1104,1.84347,1.84347,0,0,1,1.789,1.8223,7.24685,7.24685,0,0,1-.1699,1.9609l-1.0244,5.1407a9.70975,9.70975,0,0,1-.6446,2.1093,5.5794,5.5794,0,0,1-1.0537,1.5704,5.04828,5.04828,0,0,1-1.5927,1.1054,8.93832,8.93832,0,0,1-2.2305.6358Zm3.0664-2.2666.7705-.1259a3.87922,3.87922,0,0,0,.7207-.1846,3.73617,3.73617,0,0,0,.543-.2471,1.39691,1.39691,0,0,0,.4063-.3662,3.91065,3.91065,0,0,0,.289-.4297,2.85647,2.85647,0,0,0,.2158-.5635c.0723-.247.1289-.458.169-.6308s.0937-.4278.1611-.7666l1.0381-5.209c.0674-.3379.1152-.6084.1445-.8135a3.88877,3.88877,0,0,0,.0391-.6094.88615.88615,0,0,0-.1006-.4531.77077.77077,0,0,0-.2822-.2568,1.0301,1.0301,0,0,0-.4971-.1104,4.74435,4.74435,0,0,0-.7685.0723l-.7432.1221Z"/><path class="cls-1" d="M141.43688,169.35266l2.8388-14.252,6.2139-1.0195-.3652,1.831-3.5098.5752-.8144,4.0918,2.7753-.455-.3652,1.831-2.7754.4551-.9365,4.7021,3.5547-.583-.3574,1.7959Z"/><path class="cls-1" d="M149.25328,168.07036l2.8388-14.2519,3.4024-.5586a9.31408,9.31408,0,0,1,1.9775-.1455,2.83341,2.83341,0,0,1,1.3408.3789,1.56176,1.56176,0,0,1,.6963,1.0244,4.29382,4.29382,0,0,1-.0527,1.7676,6.56936,6.56936,0,0,1-.8535,2.2597,4.172,4.172,0,0,1-1.6211,1.4639l.6611,6.6846-2.7129.4453-.4765-6.2158-1.2002.1963-1.2959,6.5068Zm4.3301-8.6103.6533-.1065a3.36083,3.36083,0,0,0,1.8037-.7695,3.23529,3.23529,0,0,0,.8398-1.7598,1.98252,1.98252,0,0,0-.1123-1.5654q-.34125-.4218-1.5136-.2295l-.8145.1328Z"/><path class="cls-1" d="M167.85088,165.18566a5.20146,5.20146,0,0,1-1.6465.0449,2.19835,2.19835,0,0,1-1.0839-.4453,1.86524,1.86524,0,0,1-.5752-.8955,3.72516,3.72516,0,0,1-.1602-1.2412,9.45775,9.45775,0,0,1,.1934-1.5577l.9892-4.9687a11.43649,11.43649,0,0,1,.4532-1.666,7.34791,7.34791,0,0,1,.6865-1.4024,4.929,4.929,0,0,1,.9756-1.1367,5.45693,5.45693,0,0,1,1.332-.8164,7.12733,7.12733,0,0,1,1.7412-.5019,5.1086,5.1086,0,0,1,1.8418-.0274,1.70741,1.70741,0,0,1,1.0781.6289,2.27544,2.27544,0,0,1,.4063,1.1768,6.11617,6.11617,0,0,1-.1348,1.6806l-.2432,1.2207-2.6054.4278.2412-1.2119a5.68053,5.68053,0,0,0,.1699-1.417q-.09075-.68415-.9834-.5869l-.1426.0234a2.52348,2.52348,0,0,0-.6113.1748,1.51469,1.51469,0,0,0-.4648.3135,2.55234,2.55234,0,0,0-.3311.3994,2.31842,2.31842,0,0,0-.2461.5185q-.1098.3135-.1758.5733c-.042.1738-.0908.3926-.1425.6553l-1.2022,6.0351a3.17426,3.17426,0,0,0-.0293,1.7334q.22125.48045,1.0625.3408a2.20742,2.20742,0,0,0,.5186-.1464,2.03905,2.03905,0,0,0,.3994-.2237,1.35014,1.35014,0,0,0,.3076-.3252,3.30425,3.30425,0,0,0,.2256-.3691,2.72892,2.72892,0,0,0,.168-.4561c.0556-.1924.0986-.3545.1279-.4863.0283-.1328.0664-.3125.1113-.542l.2539-1.2724,2.6055-.4278-.2324,1.169a9.55792,9.55792,0,0,1-.4034,1.455,6.35168,6.35168,0,0,1-.6357,1.2598,4.796,4.796,0,0,1-.915,1.0488,5.08561,5.08561,0,0,1-1.2618.7676A6.886,6.886,0,0,1,167.85088,165.18566Z"/><path class="cls-1" d="M177.77088,163.55766q-2.2926.3765-3.0479-.6552a4.29367,4.29367,0,0,1-.2969-3.336l1.0479-5.2607a9.38463,9.38463,0,0,1,.6162-2.0039,5.95445,5.95445,0,0,1,1.0088-1.5625,4.92091,4.92091,0,0,1,1.5107-1.1338,7.35556,7.35556,0,0,1,2.0664-.6348q2.28375-.3735,3.0479.6397a4.16662,4.16662,0,0,1,.3096,3.292l-1.0479,5.2607a9.3359,9.3359,0,0,1-.6191,2.001,6.26708,6.26708,0,0,1-1.0186,1.5889,5.02481,5.02481,0,0,1-1.5166,1.1601A7.084,7.084,0,0,1,177.77088,163.55766Zm-.2696-1.9257a1.61994,1.61994,0,0,0,.6533,0,2.27731,2.27731,0,0,0,.6934-.2207,1.935,1.935,0,0,0,.502-.3653,2.015,2.015,0,0,0,.3544-.5156,4.00733,4.00733,0,0,0,.2413-.6055c.0595-.1972.1162-.4316.1699-.7011l1.289-6.4717a5.84773,5.84773,0,0,0,.1172-.8516,1.66308,1.66308,0,0,0-.081-.6142.58153.58153,0,0,0-.3789-.378,1.597,1.597,0,0,0-.7666-.0205,2.45181,2.45181,0,0,0-.8321.2822,1.64551,1.64551,0,0,0-.5605.5323,3.14221,3.14221,0,0,0-.335.6836,6.59307,6.59307,0,0,0-.2256.8681l-1.289,6.4727a6.48389,6.48389,0,0,0-.1065.6904,2.47869,2.47869,0,0,0,.0088.5645.83455.83455,0,0,0,.1612.4306A.68972.68972,0,0,0,177.50128,161.632Z"/><path class="cls-1" d="M184.06378,162.35946l2.8389-14.252,1.8623-.3056,2.0273,7.4756,1.6075-8.0713,2.2382-.3672-2.8378,14.2519-1.7725.2901-1.9824-7.8809-1.6895,8.4834Z"/><path class="cls-1" d="M197.72788,160.28426q-3.92145.64305-3.251-3.6738l2.4483-.8594q-.47475,2.814,1.1201,2.5527a1.65651,1.65651,0,0,0,.9892-.5117,2.09743,2.09743,0,0,0,.4932-1.0215,2.28,2.28,0,0,0-.0068-1.0498,1.80952,1.80952,0,0,0-.3584-.7226,6.05689,6.05689,0,0,0-.6866-.6407l-1.6289-1.3037a3.07366,3.07366,0,0,1-.9814-1.29,3.50926,3.50926,0,0,1-.0332-1.8779,4.88466,4.88466,0,0,1,1.5303-2.7451,5.79729,5.79729,0,0,1,2.9755-1.3946,4.22963,4.22963,0,0,1,1.4034-.0439,2.00111,2.00111,0,0,1,.9267.372,1.67171,1.67171,0,0,1,.5108.7354,3.26365,3.26365,0,0,1,.1982.9863,7.20125,7.20125,0,0,1-.0537,1.1856l-2.3975.8164q.0675-.4263.0899-.7373a3.48394,3.48394,0,0,0-.0098-.6221,1.10873,1.10873,0,0,0-.1504-.4873.64854.64854,0,0,0-.3564-.2529,1.13524,1.13524,0,0,0-.5948.0058,1.87411,1.87411,0,0,0-1.497,1.5176,1.72437,1.72437,0,0,0,.0566,1.085,2.51854,2.51854,0,0,0,.6934.8047l1.6113,1.2988a5.63669,5.63669,0,0,1,.6797.6787,4.06746,4.06746,0,0,1,.5049.79,2.85262,2.85262,0,0,1,.2744,1.0362,4.54606,4.54606,0,0,1-.086,1.2607,4.95076,4.95076,0,0,1-1.5292,2.6963A5.4173,5.4173,0,0,1,197.72788,160.28426Z"/><path class="cls-1" d="M204.513,159.005l2.4571-12.335-2.4883.4083.3818-1.917,7.6016-1.2471-.3818,1.917-2.4092.3955-2.4571,12.335Z"/><path class="cls-1" d="M210.808,157.97276l2.8388-14.252,3.4024-.5586a9.25908,9.25908,0,0,1,1.9775-.1455,2.83832,2.83832,0,0,1,1.3408.3789,1.55832,1.55832,0,0,1,.6963,1.0244,4.29554,4.29554,0,0,1-.0527,1.7676,6.56913,6.56913,0,0,1-.8535,2.2598,4.18309,4.18309,0,0,1-1.6201,1.4639l.6601,6.6845-2.7129.4453-.4765-6.2158-1.2002.1963-1.2959,6.5068Zm4.33-8.6104.6534-.1064a3.36083,3.36083,0,0,0,1.8037-.7695,3.236,3.236,0,0,0,.8398-1.7598,1.98245,1.98245,0,0,0-.1123-1.5654q-.34125-.42195-1.5137-.2295l-.8144.1328Z"/><path class="cls-1" d="M225.00908,155.80866a5.46889,5.46889,0,0,1-1.6777.0596,2.13934,2.13934,0,0,1-1.0752-.4307,1.72965,1.72965,0,0,1-.5469-.9121,4.29422,4.29422,0,0,1-.1211-1.3027,11.62,11.62,0,0,1,.2276-1.6875l1.8847-9.4639,2.6231-.4306-1.9375,9.7304c-.0664.333-.1133.6143-.1426.8467a4.70115,4.70115,0,0,0-.0312.7197,1.24678,1.24678,0,0,0,.1328.5782.736.736,0,0,0,.3799.3105,1.23269,1.23269,0,0,0,.6709.04,1.93074,1.93074,0,0,0,.7334-.2705,2.00554,2.00554,0,0,0,.5253-.459,2.95482,2.95482,0,0,0,.3741-.6611,5.61583,5.61583,0,0,0,.2627-.7539c.0615-.2344.125-.5205.1923-.8584l1.9385-9.7305,2.6231-.4306-1.8848,9.4638a13.65065,13.65065,0,0,1-.4512,1.7247,7.427,7.427,0,0,1-.667,1.4316,4.89823,4.89823,0,0,1-.9531,1.1582,5.14656,5.14656,0,0,1-1.3203.8232A7.18414,7.18414,0,0,1,225.00908,155.80866Z"/><path class="cls-1" d="M235.26108,154.12706a5.16632,5.16632,0,0,1-1.6455.0449,2.18462,2.18462,0,0,1-1.085-.4453,1.883,1.883,0,0,1-.5752-.8945,3.7343,3.7343,0,0,1-.1592-1.2422,9.33849,9.33849,0,0,1,.1924-1.5567l.9903-4.9687a11.37193,11.37193,0,0,1,.4521-1.666,7.35319,7.35319,0,0,1,.6875-1.4024,4.86549,4.86549,0,0,1,.9756-1.1367,5.42244,5.42244,0,0,1,1.3311-.8174,7.139,7.139,0,0,1,1.7412-.5019,5.13137,5.13137,0,0,1,1.8418-.0274,1.71072,1.71072,0,0,1,1.0791.6299,2.28648,2.28648,0,0,1,.4062,1.1758,6.15454,6.15454,0,0,1-.1357,1.6807l-.2432,1.2207-2.6055.4277.2412-1.2119a5.676,5.676,0,0,0,.17-1.416q-.0894-.68415-.9834-.587c-.0469.0079-.0957.0157-.1426.0235a2.52348,2.52348,0,0,0-.6113.1748,1.48725,1.48725,0,0,0-.4649.3135,2.561,2.561,0,0,0-.331.3984,2.37483,2.37483,0,0,0-.2461.5186q-.11.31335-.1748.5742c-.043.1728-.0909.3916-.1436.6543l-1.2021,6.0351a3.19189,3.19189,0,0,0-.0293,1.7334q.2211.48045,1.0634.3418a2.23391,2.23391,0,0,0,.5186-.1474,2.04307,2.04307,0,0,0,.3994-.2237,1.36856,1.36856,0,0,0,.3076-.3252,3.2837,3.2837,0,0,0,.2246-.3691,2.61945,2.61945,0,0,0,.168-.4551c.0566-.1933.0986-.3545.127-.4873q.0453-.1977.1123-.542l.2539-1.2724,2.6054-.4278-.2324,1.169a9.67772,9.67772,0,0,1-.4023,1.455,6.431,6.431,0,0,1-.6358,1.2598,4.798,4.798,0,0,1-.916,1.0488,5.08676,5.08676,0,0,1-1.2617.7676A6.88861,6.88861,0,0,1,235.26108,154.12706Z"/><path class="cls-1" d="M242.62828,152.75306l2.456-12.335-2.4892.4082.3818-1.917,7.6016-1.2471-.3819,1.917-2.4082.3946-2.456,12.3349Z"/><path class="cls-1" d="M249.00428,151.70716l2.8378-14.252,2.668-.4385-2.8389,14.252Z"/><path class="cls-1" d="M257.95738,150.40436q-2.2911.375-3.0479-.6562a4.29077,4.29077,0,0,1-.2968-3.335l1.0478-5.2607a9.45278,9.45278,0,0,1,.6152-2.0049,6.00558,6.00558,0,0,1,1.0088-1.5625,4.9389,4.9389,0,0,1,1.5117-1.1338,7.33286,7.33286,0,0,1,2.0665-.6338q2.2836-.375,3.0468.6387a4.16232,4.16232,0,0,1,.3106,3.292l-1.0479,5.2607a9.39646,9.39646,0,0,1-.6191,2.002,6.27621,6.27621,0,0,1-1.0186,1.5879,5.00885,5.00885,0,0,1-1.5166,1.1601A7.12251,7.12251,0,0,1,257.95738,150.40436Zm-.2696-1.9267a1.635,1.635,0,0,0,.6534.0009,2.30192,2.30192,0,0,0,.6933-.2216,1.95216,1.95216,0,0,0,.502-.3653,2.03848,2.03848,0,0,0,.3535-.5156,3.84285,3.84285,0,0,0,.2422-.6045q.0894-.2973.1699-.7021l1.2891-6.4717a5.85937,5.85937,0,0,0,.1172-.8516,1.66515,1.66515,0,0,0-.0811-.6142.58534.58534,0,0,0-.3789-.378,1.58633,1.58633,0,0,0-.7666-.0195,2.41933,2.41933,0,0,0-.832.2813,1.63807,1.63807,0,0,0-.5606.5332,3.15354,3.15354,0,0,0-.3349.6826,6.56177,6.56177,0,0,0-.2256.8681l-1.2891,6.4727a6.49445,6.49445,0,0,0-.1064.6914,2.46429,2.46429,0,0,0,.0087.5635.84183.84183,0,0,0,.1612.4316A.69234.69234,0,0,0,257.68778,148.47766Z"/><path class="cls-1" d="M264.25128,149.20516l2.8379-14.2519,1.8633-.3057,2.0273,7.4756,1.6075-8.0713,2.2373-.3672-2.8379,14.252-1.7725.291-1.9814-7.8819-1.6895,8.4834Z"/><path class="cls-2" d="M75.16928,146.37016q-13.0122,2.13435-10.791-12.1884l8.125-2.8506q-1.57185,9.3354,3.7158,8.4668a5.46553,5.46553,0,0,0,3.2832-1.6973A6.94141,6.94141,0,0,0,81.14,134.715a7.56958,7.56958,0,0,0-.0244-3.4854,5.98563,5.98563,0,0,0-1.1895-2.3984,20.28881,20.28881,0,0,0-2.2783-2.1231l-5.4014-4.3281a10.15958,10.15958,0,0,1-3.2568-4.2793,11.58425,11.58425,0,0,1-.1094-6.2305,16.21812,16.21812,0,0,1,5.0752-9.1084,19.25648,19.25648,0,0,1,9.8721-4.6269,14.00065,14.00065,0,0,1,4.6553-.1426,6.59971,6.59971,0,0,1,3.0722,1.2344,5.50723,5.50723,0,0,1,1.6983,2.4385,10.86515,10.86515,0,0,1,.6562,3.2715,23.53691,23.53691,0,0,1-.1806,3.9335l-7.9532,2.712q.22425-1.4166.3008-2.4502a11.451,11.451,0,0,0-.0342-2.0625,3.65249,3.65249,0,0,0-.497-1.6162,2.14864,2.14864,0,0,0-1.1836-.8399,3.7259,3.7259,0,0,0-1.9717.0205,6.21223,6.21223,0,0,0-4.9688,5.0352,5.71585,5.71585,0,0,0,.1885,3.5967,8.40132,8.40132,0,0,0,2.2989,2.6718l5.3486,4.3086a18.82741,18.82741,0,0,1,2.2519,2.251,13.5639,13.5639,0,0,1,1.6768,2.6221,9.40307,9.40307,0,0,1,.9102,3.4365,15.05712,15.05712,0,0,1-.2881,4.1846,16.40752,16.40752,0,0,1-5.0713,8.9433A17.95282,17.95282,0,0,1,75.16928,146.37016Z"/><path class="cls-2" d="M106.15168,141.28816q-7.60545,1.24665-10.1123-2.1758-2.50785-3.4233-.9853-11.0664l3.4755-17.4531a31.18141,31.18141,0,0,1,2.043-6.6523,20.00255,20.00255,0,0,1,3.3467-5.1836,16.34845,16.34845,0,0,1,5.0156-3.7608,24.29189,24.29189,0,0,1,6.8555-2.1045q7.5747-1.24215,10.1094,2.1211,2.5326,3.3648,1.0283,10.9219l-3.4756,17.4531a31.01718,31.01718,0,0,1-2.0557,6.6406,20.804,20.804,0,0,1-3.3779,5.2715,16.6575,16.6575,0,0,1-5.0332,3.8457A23.40163,23.40163,0,0,1,106.15168,141.28816Zm-.8965-6.3916a5.415,5.415,0,0,0,2.169.0029,7.53214,7.53214,0,0,0,2.3017-.7363,6.49035,6.49035,0,0,0,1.6631-1.2109,6.67076,6.67076,0,0,0,1.1738-1.709,13.04619,13.04619,0,0,0,.8028-2.0078q.2958-.9858.5635-2.3272l4.2773-21.4746a19.55234,19.55234,0,0,0,.3897-2.8222,5.503,5.503,0,0,0-.2696-2.0381,1.938,1.938,0,0,0-1.2588-1.2559,5.31234,5.31234,0,0,0-2.5439-.0654,8.01529,8.01529,0,0,0-2.7578.9346,5.44487,5.44487,0,0,0-1.8614,1.7675,10.58485,10.58485,0,0,0-1.1113,2.2657,22.04457,22.04457,0,0,0-.7461,2.8808l-4.2773,21.4746a22.8022,22.8022,0,0,0-.3555,2.293,8.42116,8.42116,0,0,0,.0293,1.8711,2.79225,2.79225,0,0,0,.5342,1.4287A2.31079,2.31079,0,0,0,105.25518,134.89656Z"/><path class="cls-2" d="M140.31188,135.68366q-7.6041,1.24815-10.1123-2.1758-2.50785-3.4233-.9854-11.0654l3.4766-17.4531a31.12551,31.12551,0,0,1,2.0429-6.6524,19.9651,19.9651,0,0,1,3.3457-5.1836,16.35343,16.35343,0,0,1,5.0167-3.7607,24.29006,24.29006,0,0,1,6.8544-2.1045q7.5747-1.24215,10.1094,2.1211,2.53275,3.3648,1.0293,10.9209l-3.4765,17.4531a31.00821,31.00821,0,0,1-2.0547,6.6407,20.84582,20.84582,0,0,1-3.378,5.2724,16.697,16.697,0,0,1-5.0332,3.8457A23.38037,23.38037,0,0,1,140.31188,135.68366Zm-.8965-6.3906a5.45147,5.45147,0,0,0,2.1689.0029,7.56009,7.56009,0,0,0,2.3018-.7363,6.52245,6.52245,0,0,0,1.6641-1.2109,6.68608,6.68608,0,0,0,1.1728-1.709,12.95513,12.95513,0,0,0,.8027-2.0078q.29745-.9873.5645-2.3272l4.2764-21.4746a19.27085,19.27085,0,0,0,.3896-2.8223,5.50833,5.50833,0,0,0-.2685-2.039,1.94647,1.94647,0,0,0-1.2588-1.2559,5.342,5.342,0,0,0-2.545-.0654,8.04022,8.04022,0,0,0-2.7578.9355,5.42534,5.42534,0,0,0-1.8603,1.7676,10.53556,10.53556,0,0,0-1.1123,2.2647,22.35105,22.35105,0,0,0-.7461,2.8818l-4.2764,21.4736a22.83554,22.83554,0,0,0-.3564,2.293,8.41926,8.41926,0,0,0,.0293,1.8711,2.80493,2.80493,0,0,0,.5341,1.4297A2.315,2.315,0,0,0,139.41538,129.29306Z"/><path class="cls-2" d="M161.18978,131.70716l9.417-47.2832,6.1787-1.0137,6.7275,24.8008,5.3331-26.7793,7.4257-1.2178-9.417,47.2832-5.8808.9648-6.5733-26.1494-5.6064,28.1475Z"/><path class="cls-1" d="M164.49158,174.09a.5.5,0,0,1-.0782-.9937l116.5284-18.5952a.49995.49995,0,1,1,.1582.9873l-116.5284,18.5952A.4993.4993,0,0,1,164.49158,174.09Z"/><path class="cls-1" d="M23.17028,207.66416a.49989.49989,0,0,1-.0772-.9937l163.6348-26.0332a.49979.49979,0,1,1,.1562.9873l-163.6347,26.0332A.48036.48036,0,0,1,23.17028,207.66416Z"/></svg>