<?xml version="1.0" encoding="utf-8"?>
<!-- Generator: Adobe Illustrator 23.0.5, SVG Export Plug-In . SVG Version: 6.00 Build 0)  -->
<svg version="1.1" id="Layer_1" xmlns="http://www.w3.org/2000/svg" xmlns:xlink="http://www.w3.org/1999/xlink" x="0px" y="0px"
	 viewBox="0 0 17 17" style="enable-background:new 0 0 17 17;" xml:space="preserve">
<style type="text/css">
	.st0{fill:#003DD9;}
</style>
<title>event</title>
<g>
	<path class="st0" d="M13.8,2.4c-0.3,0-0.5,0-0.8,0c-0.1,0-0.2,0-0.2-0.2c0-0.1,0-0.2,0-0.3c-0.1-0.4-0.5-0.7-0.9-0.7
		c-0.5,0-0.9,0.4-0.9,0.9c0,0.3,0,0.3-0.3,0.3c-1.2,0-3.3,0-4.5,0c0,0,0,0-0.1,0c0-0.1,0-0.2,0-0.3c0-0.1,0-0.2,0-0.3
		C5.9,1.3,5.4,1,4.9,1.2c-0.4,0.1-0.7,0.5-0.7,1c0,0.2,0,0.2-0.2,0.2c-0.2,0-0.5,0-0.7,0c-1.5,0-2.7,1.2-2.7,2.7c0,2.7,0,5.4,0,8.1
		c0,1.5,1.2,2.7,2.7,2.7c3.5,0,7,0,10.6,0c1.5,0,2.7-1.2,2.7-2.7c0-2.7,0-5.4,0-8.1C16.5,3.6,15.3,2.4,13.8,2.4z M11.6,2.1
		c0-0.1,0.1-0.2,0.2-0.3c0.1,0,0.2,0,0.3,0c0.1,0.1,0.1,0.2,0.1,0.3c0,0.6,0,1.2,0,1.8c0,0,0,0,0,0.1c0,0.2-0.2,0.3-0.3,0.3
		c-0.2,0-0.3-0.2-0.3-0.3c0-0.3,0-0.6,0-0.9C11.6,2.7,11.6,2.4,11.6,2.1z M4.8,2.2c0-0.2,0.1-0.4,0.3-0.4c0.2,0,0.3,0.1,0.3,0.4
		c0,0.5,0,1.1,0,1.6c0,0.2-0.1,0.4-0.3,0.4C5,4.2,4.8,4,4.8,3.8c0-0.3,0-0.5,0-0.8C4.8,2.7,4.8,2.4,4.8,2.2z M15.8,13.1
		c0,1-0.7,1.9-1.7,2.1c-0.3,0.1-0.7,0.1-1,0.1c-3.2,0-6.5,0-9.7,0c-0.9,0.1-1.7-0.4-2.1-1.3c-0.2-0.4-0.2-0.7-0.2-1.1
		c0-2.3,0-4.5,0-6.8c0,0,0.1,0,0.1,0c2.2,0,5.4,0,7.6,0c2.2,0,4.5,0,6.7,0c0.1,0,0.2,0,0.2,0.2C15.8,8.5,15.9,10.8,15.8,13.1z
		 M15.6,5.4c-4.4,0-9.9,0-14.3,0c0,0-0.1,0-0.1,0c0-0.2,0-0.4,0-0.6C1.3,3.9,2.1,3.2,3,3C3.3,3,3.7,3,4,3c0.1,0,0.2,0,0.2,0.2
		c0,0.3,0,0.5,0,0.8c0,0.5,0.4,0.9,0.9,0.9c0.5,0,0.9-0.4,1-0.9c0-0.3,0-0.6,0-0.9c0,0,0,0,0.1,0c1.2,0,3.4,0,4.6,0
		c0.2,0,0.2,0,0.2,0.2c0,0.2,0,0.5,0,0.7c0,0.5,0.4,0.9,0.9,0.9c0.5,0,0.9-0.4,0.9-0.9c0-0.3,0-0.5,0-0.8c0-0.1,0-0.1,0.1-0.1
		c0.4,0,0.8,0,1.2,0.1c1,0.2,1.7,1.1,1.7,2.1C15.9,5.4,15.9,5.4,15.6,5.4z"/>
	<path class="st0" d="M6.7,9C6.7,9,6.7,9,6.7,9c0.6,0,0.6,0,0.8-0.5C7.5,8.3,7.6,8.2,7.6,8c0.2-0.5,0.7-0.7,1.2-0.6
		C9.1,7.5,9.3,7.7,9.4,8c0.1,0.3,0.2,0.6,0.3,0.9C9.7,9,9.8,9,9.9,9c0.3,0,0.6,0,0.8,0c0.4,0,0.8,0.3,0.9,0.6c0.1,0.4,0,0.8-0.3,1.1
		c-0.2,0.2-0.4,0.3-0.7,0.5c-0.1,0.1-0.2,0.2-0.1,0.3c0,0,0,0,0,0c0.1,0.3,0.2,0.5,0.3,0.8c0.2,0.5-0.1,1-0.6,1.2
		c-0.3,0.1-0.6,0-0.9-0.1c-0.2-0.2-0.5-0.3-0.7-0.5c-0.1-0.1-0.2-0.1-0.3,0c0,0,0,0,0,0c-0.2,0.2-0.4,0.3-0.6,0.5
		c-0.4,0.3-1,0.3-1.3-0.1c-0.2-0.3-0.3-0.6-0.1-0.9c0.1-0.3,0.2-0.5,0.3-0.8c0-0.1,0-0.2-0.1-0.2c0,0,0,0,0,0
		c-0.2-0.2-0.5-0.3-0.7-0.5c-0.4-0.3-0.5-0.9-0.2-1.3C5.7,9.2,6,9,6.3,9C6.4,9,6.5,9,6.7,9z M6.9,9.7L6.9,9.7c-0.2,0-0.4,0-0.5,0
		c-0.2,0-0.3,0-0.3,0.2c0,0.1,0,0.3,0.2,0.4c0.3,0.2,0.6,0.4,0.9,0.6c0.2,0.1,0.3,0.3,0.2,0.5c0,0,0,0,0,0c-0.1,0.3-0.2,0.7-0.3,1
		c-0.1,0.2-0.1,0.3,0.1,0.4c0.1,0.1,0.3,0,0.4-0.1c0.3-0.2,0.6-0.4,0.9-0.6c0.1-0.1,0.4-0.2,0.5,0c0,0,0,0,0,0
		c0.3,0.2,0.6,0.4,0.9,0.6c0.1,0.1,0.3,0.2,0.4,0c0.1-0.1,0.2-0.3,0.1-0.4c-0.1-0.3-0.2-0.7-0.3-1c-0.1-0.2,0-0.4,0.1-0.5
		c0,0,0,0,0,0c0.3-0.2,0.5-0.4,0.8-0.6c0.1-0.1,0.3-0.2,0.2-0.4c-0.1-0.2-0.2-0.2-0.4-0.2c-0.3,0-0.7,0-1,0c-0.3,0-0.4-0.1-0.5-0.3
		C9,9,8.9,8.7,8.8,8.3c0-0.1-0.1-0.3-0.3-0.3c-0.2,0-0.3,0.1-0.3,0.3C8.1,8.7,8,9,7.9,9.4c0,0.2-0.2,0.4-0.4,0.3
		C7.2,9.7,7.1,9.7,6.9,9.7z"/>
</g>
</svg>
