<svg id="Layer_1" data-name="Layer 1" xmlns="http://www.w3.org/2000/svg" viewBox="0 0 24 24"><defs><style>.cls-1{fill-rule:evenodd;}</style></defs><title>heart</title><path class="cls-1" d="M11.31183,5.2698a5.01179,5.01179,0,0,0-7.08764-.03875l-.058.05828-.01992.01882a4.6908,4.6908,0,0,0-.27277,6.62819q.13987.15188.29269.291l.0054.0052,7.75911,7.71611,7.90307-7.72131.01992-.01893a4.69065,4.69065,0,0,0,.27294-6.628q-.14-.152-.29286-.29118a5.192,5.192,0,0,0-7.31418,0,.84986.84986,0,0,1-1.20181-.01336l-.006-.00618Zm.629-1.7358a6.73726,6.73726,0,0,0-8.95315.52248,6.40083,6.40083,0,0,0-.35806,9.04506q.166.17973.34546.34639l.00277.00276,8.34807,8.30169a.84965.84965,0,0,0,1.19373.00531L21.0127,13.46a6.40117,6.40117,0,0,0,.35718-9.04559q-.16707-.18081-.34766-.34837A6.88587,6.88587,0,0,0,11.9408,3.534Z"/></svg>