<svg id="Layer_1" data-name="Layer 1" xmlns="http://www.w3.org/2000/svg" viewBox="0 0 150 150"><title>help</title><path d="M69.623-.02329H82.02994C84.40848.32472,86.81369.546,89.16153,1.04c30.13275,6.33954,49.898,24.23988,59.43784,53.47125a79.19826,79.19826,0,0,1,2.85038,14.88532V81.80347c-.34814,2.37946-.5694,4.78562-1.06364,7.13433-6.34089,30.13237-24.24163,49.89708-53.47354,59.43594a79.33553,79.33553,0,0,1-14.88263,2.84955H69.623a7.68525,7.68525,0,0,0-.86178-.17607,74.20214,74.20214,0,0,1-29.4098-9.03583C11.419,126.59438-5.00443,94.937,1.36891,62.19675,7.23166,32.07945,25.47508,12.42908,54.588,2.86513A78.768,78.768,0,0,1,69.623-.02329ZM75.87888,138.426A62.826,62.826,0,1,0,13.00047,75.57854,62.93823,62.93823,0,0,0,75.87888,138.426Z"/><path d="M75.44445,34.22707A33.1087,33.1087,0,0,1,89.10407,37.0577c12.11827,5.792,14.43521,20.19772,4.7172,29.49541a76.68627,76.68627,0,0,1-8.72911,6.79177,30.51259,30.51259,0,0,0-5.39455,4.569c-2.21583,2.52468-3.04651,5.33782-1.80746,8.59723a5.4557,5.4557,0,0,1,.19089,3.75733,4.87032,4.87032,0,0,1-8.10564,1.69644,12.42365,12.42365,0,0,1-3.5723-10.10533c.32223-5.09063,3.09189-8.81587,6.94138-11.845,2.78323-2.19015,5.685-4.23,8.46269-6.42679,2.22617-1.76063,4.1686-3.80534,4.81735-6.70263,1.18128-5.27552-1.8665-10.00218-7.35258-11.29A19.94823,19.94823,0,0,0,60.40334,50.55c-1.571,1.41772-3.231,2.42587-5.45207,1.83437a5.29076,5.29076,0,0,1-2.42219-8.96934C58.84465,37.29174,66.45276,34.36109,75.44445,34.22707Z"/><path d="M74.19833,117.0884a7.56631,7.56631,0,0,1-7.61347-7.57561,7.74589,7.74589,0,0,1,7.67142-7.72909,7.65248,7.65248,0,0,1-.058,15.3047Z"/></svg>