<svg id="Layer_1" data-name="Layer 1" xmlns="http://www.w3.org/2000/svg" viewBox="0 0 24 24"><defs><style>.cls-1{fill-rule:red;}</style></defs><title>home</title><path class="cls-1" d="M12.7166,3.79541a1.25969,1.25969,0,0,0-1.4332,0l-7.14,4.91669a1.26855,1.26855,0,0,0-.55089.99587,49.97644,49.97644,0,0,0,.04411,5.47973c.11382,1.2865.41678,2.987.66286,4.2379a1.24,1.24,0,0,0,1.22093,1.0028h3.324a.25923.25923,0,0,0,.25641-.2619V15.9754a1.81461,1.81461,0,0,1,1.79486-1.8337h2.5135a1.81462,1.81462,0,0,1,1.7949,1.8337v4.1911a.25923.25923,0,0,0,.2564.2619h3.0192a1.24009,1.24009,0,0,0,1.221-1.0028c.246-1.2509.549-2.9514.6628-4.2379A49.95384,49.95384,0,0,0,20.4075,9.708a1.26853,1.26853,0,0,0-.5509-.99587ZM10.4235,2.49217a2.77124,2.77124,0,0,1,3.153,0l7.14,4.91669a2.84809,2.84809,0,0,1,1.2283,2.2385,51.41935,51.41935,0,0,1-.0492,5.68184c-.1218,1.3775-.4395,3.1494-.6867,4.4061a2.78685,2.78685,0,0,1-2.7293,2.2648H15.4604a1.8146,1.8146,0,0,1-1.7949-1.8336V15.9754a.25925.25925,0,0,0-.2564-.262H10.8956a.25925.25925,0,0,0-.2564.262v4.1911a1.81459,1.81459,0,0,1-1.79487,1.8336h-3.324a2.78679,2.78679,0,0,1-2.72924-2.2648c-.24721-1.2567-.56489-3.0286-.68676-4.4061a51.42958,51.42958,0,0,1-.04922-5.68184,2.84819,2.84819,0,0,1,1.22831-2.2385Z"/></svg>