<svg id="Layer_1" data-name="Layer 1" xmlns="http://www.w3.org/2000/svg" viewBox="0 0 17 17"><defs><style>.cls-1{fill:#fff;}</style></defs><title>mail</title><path class="cls-1" d="M16.57257,13.25839a.92976.92976,0,0,1-.98552.6425Q8.46654,13.891,1.346,13.89671a.8561.8561,0,0,1-.893-.62614.83167.83167,0,0,1-.02529-.23371q-.00023-4.537.00043-9.074a.83758.83758,0,0,1,.90231-.85922q4.17465-.00116,8.3493-.0004c1.96917,0,3.93838.00584,5.9075-.00414a.92726.92726,0,0,1,.98533.64268Zm-.64641-9.08254c-.06785.04877-.11071.07845-.15239.10971q-3.15063,2.36271-6.301,4.72578a1.49362,1.49362,0,0,1-1.92844.00373Q4.39386,6.65182,1.24251,4.28968c-.0465-.03485-.087-.08691-.15392-.08879V12.71c.05809-.01157.07534-.05329.10072-.08465q1.541-1.904,3.08168-3.80837a4.39169,4.39169,0,0,1,.29717-.3463.30181.30181,0,0,1,.41527-.0173.31319.31319,0,0,1,.08062.41,1.23237,1.23237,0,0,1-.12045.16507q-1.6494,2.03925-3.29888,4.07842c-.02787.03448-.08708.06677-.06308.11579.02358.04816.08586.02365.13046.02366q6.79016.00153,13.58031.00028c.0457,0,.10938.02228.13333-.01879.03272-.05611-.03477-.09069-.06494-.128q-1.52467-1.88682-3.052-3.77152c-.09913-.12244-.19941-.244-.296-.36839-.14954-.19254-.14486-.37173.00954-.50194a.33016.33016,0,0,1,.49366.08482q.02574.02981.05055.06041,1.63013,2.01429,3.26075,4.02815c.02413.02979.038.07723.09884.07295ZM1.641,3.761c.05335.04375.08777.07422.12442.10172Q4.84607,6.174,7.9271,8.48477a.85251.85251,0,0,0,1.16284-.00413q3.07482-2.3062,6.149-4.61327c.0392-.02942.093-.0472.1087-.10638Z"/></svg>