<svg id="Layer_1" data-name="Layer 1" xmlns="http://www.w3.org/2000/svg" viewBox="0 0 64 64"><defs><style>.cls-1{stroke:#000;stroke-miterlimit:10;}</style></defs><title>menu</title><path class="cls-1" d="M6.6,14.7a2.30007,2.30007,0,0,1,2.5-1.5H54.4a2.37557,2.37557,0,0,1,2.5,1.6V16a2.4968,2.4968,0,0,1-2.5,1.6H9.1a2.58194,2.58194,0,0,1-2.5-1.7Z"/><path class="cls-1" d="M56.9,48.1a2.4968,2.4968,0,0,1-2.5,1.6H9.1a2.4968,2.4968,0,0,1-2.5-1.6V46.9a2.4968,2.4968,0,0,1,2.5-1.6H54.4a2.37557,2.37557,0,0,1,2.5,1.6Z"/><path class="cls-1" d="M6.6,30.8a2.42235,2.42235,0,0,1,2.6-1.5h45a2.54949,2.54949,0,0,1,2.6,1.5V32a2.54949,2.54949,0,0,1-2.6,1.5H9.1A2.255,2.255,0,0,1,6.6,32Z"/></svg>