<svg id="Layer_1" data-name="Layer 1" xmlns="http://www.w3.org/2000/svg" viewBox="0 0 17 17"><defs><style>.cls-1{fill:#fff;}</style></defs><title>mobile</title><path class="cls-1" d="M4.32739,1.18511a2.16568,2.16568,0,0,1,1.12234.71258c.5648.57961,1.1605,1.12942,1.70186,1.7314a1.35673,1.35673,0,0,1,.006,1.87883A14.6859,14.6859,0,0,1,6.04238,6.63373a.16306.16306,0,0,0-.04566.22812A8.43807,8.43807,0,0,0,7.50647,8.94648,10.41794,10.41794,0,0,0,9.518,10.64875c.204.1302.42347.236.63272.35831a.11779.11779,0,0,0,.17007-.02831q.47533-.48415.95875-.96037a1.81854,1.81854,0,0,1,.59979-.42888,1.34344,1.34344,0,0,1,1.52433.31823c.62912.60962,1.23857,1.23949,1.86364,1.85336a1.44373,1.44373,0,0,1,.10074,2.12543c-.44294.47768-.89439.95088-1.377,1.38749a2.33868,2.33868,0,0,1-1.84048.52843,8.161,8.161,0,0,1-2.98953-.93454A14.91346,14.91346,0,0,1,5.3629,12.18569,14.78677,14.78677,0,0,1,1.547,6.4187,5.506,5.506,0,0,1,1.214,4.47431a2.34657,2.34657,0,0,1,.6637-1.639Q2.456,2.2421,3.0481,1.66242a1.78524,1.78524,0,0,1,.90782-.47731Zm8.07209,13.89306a1.57362,1.57362,0,0,0,1.18144-.41381q.64131-.62,1.24556-1.278a.66722.66722,0,0,0-.013-1.00759c-.64076-.65857-1.29266-1.3065-1.94884-1.94976a.63339.63339,0,0,0-.87091-.04461,1.79521,1.79521,0,0,0-.20248.18c-.35465.35239-.70657.70754-1.06185,1.0593a.608.608,0,0,1-.78.12718c-.2075-.10584-.41523-.21256-.6149-.33217A10.96766,10.96766,0,0,1,6.93391,9.43089,8.84055,8.84055,0,0,1,5.27341,7.072a.64792.64792,0,0,1,.17186-.89249c.357-.32976.69929-.67428,1.0374-1.02284a.71135.71135,0,0,0,.00618-1.15348l-.02-.02045Q5.59026,3.1039,4.71134,2.22529a1.04862,1.04862,0,0,0-.31925-.23674.71312.71312,0,0,0-.82853.21031c-.37553.36505-.74458.73688-1.11122,1.11089a1.61542,1.61542,0,0,0-.38036.58036A2.66668,2.66668,0,0,0,2.0324,5.3547,8.88878,8.88878,0,0,0,3.045,7.97919a15.00739,15.00739,0,0,0,7.09987,6.53331A6.08734,6.08734,0,0,0,12.39948,15.07817Z"/></svg>