<svg id="Layer_1" data-name="Layer 1" xmlns="http://www.w3.org/2000/svg" xmlns:xlink="http://www.w3.org/1999/xlink" viewBox="0 0 159.13043 152.6087"><defs><style>.cls-1{fill:none;}.cls-2{fill:url(#linear-gradient);}.cls-3{fill:url(#linear-gradient-2);}.cls-4{fill:url(#linear-gradient-3);}.cls-5{fill:url(#linear-gradient-4);}.cls-6{fill:url(#New_Gradient_Swatch_4);}.cls-7{fill:#f8da5b;}.cls-8{fill:url(#linear-gradient-5);}.cls-9{fill:url(#linear-gradient-6);}.cls-10{fill:url(#linear-gradient-7);}.cls-11{fill:url(#linear-gradient-8);}.cls-12{fill:url(#linear-gradient-9);}.cls-13{fill:url(#New_Gradient_Swatch_2);}.cls-14{fill:url(#New_Gradient_Swatch_2-2);}.cls-15{fill:url(#New_Gradient_Swatch_2-3);}.cls-16{fill:url(#New_Gradient_Swatch_2-4);}.cls-17{fill:url(#New_Gradient_Swatch_2-5);}.cls-18{fill:url(#New_Gradient_Swatch_2-6);}.cls-19{fill:url(#New_Gradient_Swatch_2-7);}.cls-20{fill:url(#New_Gradient_Swatch_2-8);}.cls-21{fill:url(#New_Gradient_Swatch_2-9);}.cls-22{fill:url(#New_Gradient_Swatch_2-10);}.cls-23{fill:#f6bb1b;}.cls-23,.cls-24,.cls-25{fill-rule:evenodd;}.cls-24{fill:url(#linear-gradient-10);}.cls-25{fill:url(#linear-gradient-11);}.cls-26{fill:#231f20;}.cls-27{clip-path:url(#clip-path);}.cls-28{clip-path:url(#clip-path-2);}.cls-29{opacity:0.06;}.cls-30{fill:#fff;}</style><linearGradient id="linear-gradient" x1="100.71368" y1="2.86751" x2="44.79338" y2="185.36209" gradientTransform="translate(0.93228 0.93228)" gradientUnits="userSpaceOnUse"><stop offset="0" stop-color="#fff0a3"/><stop offset="0.31233" stop-color="#b88000"/><stop offset="0.75392" stop-color="#dbba55"/><stop offset="1" stop-color="#ecd780"/></linearGradient><linearGradient id="linear-gradient-2" x1="17.85822" y1="10.5079" x2="138.97959" y2="139.4629" xlink:href="#linear-gradient"/><linearGradient id="linear-gradient-3" x1="20.74253" y1="13.57875" x2="136.10958" y2="136.40726" gradientTransform="translate(0.93228 0.93228)" gradientUnits="userSpaceOnUse"><stop offset="0" stop-color="#05224c"/><stop offset="1" stop-color="#0b2d62"/></linearGradient><linearGradient id="linear-gradient-4" x1="107.43491" y1="-9.31409" x2="12.27542" y2="269.08693" xlink:href="#linear-gradient"/><linearGradient id="New_Gradient_Swatch_4" x1="29.61172" y1="124.09852" x2="127.52239" y2="26.18784" gradientTransform="translate(0.93228 0.93228)" gradientUnits="userSpaceOnUse"><stop offset="0" stop-color="#001b66"/><stop offset="0.33005" stop-color="#00299a"/><stop offset="0.62242" stop-color="#0034c1"/><stop offset="0.85548" stop-color="#003bd8"/><stop offset="1" stop-color="#003de1"/></linearGradient><linearGradient id="linear-gradient-5" x1="117.36003" y1="80.13022" x2="122.52161" y2="80.13022" gradientTransform="translate(0.93228 0.93228)" gradientUnits="userSpaceOnUse"><stop offset="0" stop-color="#fff0a3"/><stop offset="1" stop-color="#ecd780"/></linearGradient><linearGradient id="linear-gradient-6" x1="104.94885" y1="51.03563" x2="111.96781" y2="51.03563" xlink:href="#linear-gradient-5"/><linearGradient id="linear-gradient-7" x1="36.88757" y1="78.1268" x2="122.42031" y2="78.1268" xlink:href="#linear-gradient"/><linearGradient id="linear-gradient-8" x1="47.34015" y1="51.03563" x2="54.35902" y2="51.03563" xlink:href="#linear-gradient-5"/><linearGradient id="linear-gradient-9" x1="36.78626" y1="80.13022" x2="41.94794" y2="80.13022" xlink:href="#linear-gradient-5"/><linearGradient id="New_Gradient_Swatch_2" x1="-3278.68541" y1="-1492.95029" x2="-3273.2105" y2="-1498.4252" gradientTransform="translate(-1589.45587 3239.60574) rotate(94.12652)" gradientUnits="userSpaceOnUse"><stop offset="0.00562" stop-color="#f6bb1b"/><stop offset="0.25281" stop-color="#fff0a3"/><stop offset="0.31667" stop-color="#f8e492"/><stop offset="0.44361" stop-color="#e4c565"/><stop offset="0.62003" stop-color="#c5941d"/><stop offset="0.68767" stop-color="#b88000"/><stop offset="1" stop-color="#fff0a3"/></linearGradient><linearGradient id="New_Gradient_Swatch_2-2" x1="-3293.11687" y1="-1490.57372" x2="-3290.33133" y2="-1493.35926" xlink:href="#New_Gradient_Swatch_2"/><linearGradient id="New_Gradient_Swatch_2-3" x1="-3286.996" y1="-1492.85347" x2="-3282.97137" y2="-1496.87811" xlink:href="#New_Gradient_Swatch_2"/><linearGradient id="New_Gradient_Swatch_2-4" x1="-3261.66089" y1="-1490.5151" x2="-3258.75807" y2="-1493.41793" xlink:href="#New_Gradient_Swatch_2"/><linearGradient id="New_Gradient_Swatch_2-5" x1="-3268.99605" y1="-1492.88966" x2="-3265.0165" y2="-1496.8692" xlink:href="#New_Gradient_Swatch_2"/><linearGradient id="New_Gradient_Swatch_2-6" x1="-3073.39963" y1="3400.33799" x2="-3067.92472" y2="3394.86307" gradientTransform="matrix(0.01155, 0.99993, 0.99993, -0.01155, -3337.84937, 3187.08236)" xlink:href="#New_Gradient_Swatch_2"/><linearGradient id="New_Gradient_Swatch_2-7" x1="-3087.83109" y1="3402.71456" x2="-3085.04555" y2="3399.92902" gradientTransform="matrix(0.01155, 0.99993, 0.99993, -0.01155, -3337.84937, 3187.08236)" xlink:href="#New_Gradient_Swatch_2"/><linearGradient id="New_Gradient_Swatch_2-8" x1="-3081.71022" y1="3400.4348" x2="-3077.68559" y2="3396.41017" gradientTransform="matrix(0.01155, 0.99993, 0.99993, -0.01155, -3337.84937, 3187.08236)" xlink:href="#New_Gradient_Swatch_2"/><linearGradient id="New_Gradient_Swatch_2-9" x1="-3056.37512" y1="3402.77318" x2="-3053.47229" y2="3399.87035" gradientTransform="matrix(0.01155, 0.99993, 0.99993, -0.01155, -3337.84937, 3187.08236)" xlink:href="#New_Gradient_Swatch_2"/><linearGradient id="New_Gradient_Swatch_2-10" x1="-3063.71027" y1="3400.39862" x2="-3059.73073" y2="3396.41908" gradientTransform="matrix(0.01155, 0.99993, 0.99993, -0.01155, -3337.84937, 3187.08236)" xlink:href="#New_Gradient_Swatch_2"/><linearGradient id="linear-gradient-10" x1="84.50668" y1="77.30782" x2="61.40988" y2="65.02704" gradientUnits="userSpaceOnUse"><stop offset="0.00562" stop-color="#f6bb1b"/><stop offset="0.68767" stop-color="#b88000"/><stop offset="1" stop-color="#fff0a3"/></linearGradient><linearGradient id="linear-gradient-11" x1="98.02591" y1="76.3961" x2="82.52804" y2="68.15573" xlink:href="#linear-gradient-10"/><clipPath id="clip-path"><rect class="cls-1" x="-256.8806" y="427.35816" width="1192.90024" height="200" rx="20"/></clipPath><clipPath id="clip-path-2"><rect class="cls-1" x="-256.94319" y="427.35816" width="1192.90024" height="200" rx="20"/></clipPath></defs><title>mobile-logo</title><path class="cls-2" d="M99.39583,151.07033a39.93649,39.93649,0,0,1-9.99129-1.81669,39.77,39.77,0,0,0-9.90521-1.807,39.77619,39.77619,0,0,0-9.90587,1.807,39.97594,39.97594,0,0,1-9.99075,1.81669,13.62014,13.62014,0,0,1-4.26481-.63248c-4.68013-1.51961-7.97173-5.626-11.15468-9.59717a37.49368,37.49368,0,0,0-6.63537-7.01841,38.56775,38.56775,0,0,0-8.82749-4.21716c-4.72592-1.79934-9.61266-3.66008-12.46422-7.57841-2.81847-3.87282-3.08633-9.072-3.345-14.09994a39.22625,39.22625,0,0,0-1.309-9.78949,36.749,36.749,0,0,0-4.54948-8.33022C4.239,85.5269,1.33006,81.101,1.33006,76.07534s2.909-9.45157,5.72262-13.73172a36.74767,36.74767,0,0,0,4.54894-8.32968,39.20948,39.20948,0,0,0,1.30914-9.79042c.25905-5.02755.52651-10.22659,3.34538-14.09954,2.85116-3.91834,7.73777-5.77907,12.46382-7.57842A38.54921,38.54921,0,0,0,37.54785,18.328a37.4708,37.4708,0,0,0,6.63484-7.01788C47.36617,7.33882,50.65737,3.23243,55.3383,1.713a13.61653,13.61653,0,0,1,4.26481-.63261A39.956,39.956,0,0,1,69.594,2.89664a39.77371,39.77371,0,0,0,9.90533,1.80682,39.78255,39.78255,0,0,0,9.90521-1.80682,39.959,39.959,0,0,1,9.99129-1.81629,13.61309,13.61309,0,0,1,4.26387.63208c4.68094,1.52,7.97253,5.62639,11.15561,9.5977a37.49845,37.49845,0,0,0,6.63537,7.01788,38.5508,38.5508,0,0,0,8.82776,4.21755c4.72605,1.79935,9.61266,3.66008,12.46382,7.57842,2.81847,3.87295,3.08646,9.072,3.345,14.09994a39.22158,39.22158,0,0,0,1.30914,9.78962,36.75411,36.75411,0,0,0,4.54907,8.32915c2.81353,4.28068,5.72289,8.70657,5.72289,13.73265,0,5.02567-2.90936,9.45156-5.72249,13.73171a36.74383,36.74383,0,0,0-4.54947,8.33022,39.21717,39.21717,0,0,0-1.30914,9.78949c-.25852,5.02794-.52651,10.22712-3.345,14.09994-2.85156,3.91833-7.73817,5.77907-12.46422,7.57841a38.56674,38.56674,0,0,0-8.82736,4.21716,37.479,37.479,0,0,0-6.63483,7.01787c-3.18362,3.97132-6.47468,8.0777-11.15522,9.59771A13.6195,13.6195,0,0,1,99.39583,151.07033Z"/><path class="cls-3" d="M156.76453,76.0752c0,7.9684-7.89312,14.59242-10.22779,21.78259-2.41954,7.452-.01094,17.43424-4.52519,23.63706-4.55935,6.26488-14.82784,7.03722-21.09258,11.59658-6.20282,4.51411-10.08565,14.06684-17.53768,16.48652-7.19,2.33466-15.91356-3.03494-23.882-3.03494s-16.69178,5.3696-23.88182,3.03507c-7.45216-2.41968-11.33513-11.97241-17.53794-16.48665-6.26488-4.55936-16.53337-5.3317-21.09272-11.59658-4.51411-6.20268-2.10538-16.18476-4.52506-23.63679C10.12713,90.66789,2.234,84.04373,2.234,76.0752s7.89312-14.59241,10.22765-21.78259c2.41968-7.452.01108-17.4341,4.52519-23.63705C21.5462,24.39082,31.81469,23.61834,38.07957,19.059,44.28225,14.54487,48.16522,4.99214,55.61711,2.57246,62.80728.23793,71.53067,5.60754,79.49933,5.60754c7.96826,0,16.69166-5.36974,23.8817-3.03508C110.83305,4.992,114.71615,14.54487,120.919,19.059c6.26474,4.55936,16.53323,5.33184,21.09258,11.59671,4.51412,6.20268,2.10551,16.18476,4.52519,23.63666C148.87141,61.48252,156.76453,68.10681,156.76453,76.0752Z"/><path class="cls-4" d="M99.39583,146.55088a36.29548,36.29548,0,0,1-8.81735-1.66121,43.068,43.068,0,0,0-11.07915-1.9623,43.07011,43.07011,0,0,0-11.07941,1.9623,36.32457,36.32457,0,0,1-8.81721,1.66121,9.17667,9.17667,0,0,1-2.86892-.41187c-3.39476-1.102-6.12941-4.51317-9.02422-8.12521a41.32293,41.32293,0,0,0-7.50247-7.84587,41.84655,41.84655,0,0,0-9.87838-4.78651c-4.2979-1.63612-8.35744-3.18215-10.4181-6.01383-2.02851-2.78764-2.251-7.10369-2.48615-11.67292a42.48781,42.48781,0,0,0-1.52361-10.953,40.57211,40.57211,0,0,0-5.07158-9.41714c-2.56062-3.89577-4.97977-7.57574-4.97977-11.24917s2.41862-7.35327,4.97977-11.24918a40.56509,40.56509,0,0,0,5.07118-9.41673,42.50943,42.50943,0,0,0,1.524-10.95342c.23516-4.56923.45724-8.88528,2.48575-11.67239,2.06106-2.83221,6.1202-4.37784,10.4181-6.01423a41.85334,41.85334,0,0,0,9.87918-4.78691A41.35265,41.35265,0,0,0,47.70917,14.137c2.89521-3.612,5.62933-7.02335,9.02462-8.12535a9.17781,9.17781,0,0,1,2.86932-.41186,36.27275,36.27275,0,0,1,8.81721,1.66134,43.0891,43.0891,0,0,0,11.079,1.96177A43.09109,43.09109,0,0,0,90.57808,7.26114,36.27667,36.27667,0,0,1,99.39583,5.5998a9.18629,9.18629,0,0,1,2.86825.41133c3.39542,1.10253,6.13007,4.51384,9.02488,8.12534a41.34346,41.34346,0,0,0,7.50248,7.846,41.83782,41.83782,0,0,0,9.87878,4.78691c4.2979,1.63639,8.357,3.182,10.4177,6.0137,2.0285,2.78764,2.25085,7.10369,2.48614,11.67292a42.475,42.475,0,0,0,1.52361,10.953,40.57921,40.57921,0,0,0,5.07106,9.4162c2.56115,3.89631,4.98016,7.57668,4.98016,11.25011s-2.419,7.3534-4.97976,11.24971a40.55464,40.55464,0,0,0-5.07146,9.4162,42.48116,42.48116,0,0,0-1.52361,10.95288c-.23529,4.56977-.45764,8.88582-2.48614,11.67346-2.06067,2.83168-6.1202,4.37771-10.4181,6.01383a41.8413,41.8413,0,0,0-9.87838,4.78651,41.32466,41.32466,0,0,0-7.50208,7.84587c-2.89521,3.6115-5.62946,7.02281-9.02475,8.12521A9.17576,9.17576,0,0,1,99.39583,146.55088Z"/><path class="cls-5" d="M99.39583,146.55088a36.29548,36.29548,0,0,1-8.81735-1.66121,43.068,43.068,0,0,0-11.07915-1.9623,43.07011,43.07011,0,0,0-11.07941,1.9623,36.32457,36.32457,0,0,1-8.81721,1.66121,9.17667,9.17667,0,0,1-2.86892-.41187c-3.39476-1.102-6.12941-4.51317-9.02422-8.12521a41.32293,41.32293,0,0,0-7.50247-7.84587,41.84655,41.84655,0,0,0-9.87838-4.78651c-4.2979-1.63612-8.35744-3.18215-10.4181-6.01383-2.02851-2.78764-2.251-7.10369-2.48615-11.67292a42.48781,42.48781,0,0,0-1.52361-10.953,40.57211,40.57211,0,0,0-5.07158-9.41714c-2.56062-3.89577-4.97977-7.57574-4.97977-11.24917s2.41862-7.35327,4.97977-11.24918a40.56509,40.56509,0,0,0,5.07118-9.41673,42.50943,42.50943,0,0,0,1.524-10.95342c.23516-4.56923.45724-8.88528,2.48575-11.67239,2.06106-2.83221,6.1202-4.37784,10.4181-6.01423a41.85334,41.85334,0,0,0,9.87918-4.78691A41.35265,41.35265,0,0,0,47.70917,14.137c2.89521-3.612,5.62933-7.02335,9.02462-8.12535a9.17781,9.17781,0,0,1,2.86932-.41186,36.27275,36.27275,0,0,1,8.81721,1.66134,43.0891,43.0891,0,0,0,11.079,1.96177A43.09109,43.09109,0,0,0,90.57808,7.26114,36.27667,36.27667,0,0,1,99.39583,5.5998a9.18629,9.18629,0,0,1,2.86825.41133c3.39542,1.10253,6.13007,4.51384,9.02488,8.12534a41.34346,41.34346,0,0,0,7.50248,7.846,41.83782,41.83782,0,0,0,9.87878,4.78691c4.2979,1.63639,8.357,3.182,10.4177,6.0137,2.0285,2.78764,2.25085,7.10369,2.48614,11.67292a42.475,42.475,0,0,0,1.52361,10.953,40.57921,40.57921,0,0,0,5.07106,9.4162c2.56115,3.89631,4.98016,7.57668,4.98016,11.25011s-2.419,7.3534-4.97976,11.24971a40.55464,40.55464,0,0,0-5.07146,9.4162,42.48116,42.48116,0,0,0-1.52361,10.95288c-.23529,4.56977-.45764,8.88582-2.48614,11.67346-2.06067,2.83168-6.1202,4.37771-10.4181,6.01383a41.8413,41.8413,0,0,0-9.87838,4.78651,41.32466,41.32466,0,0,0-7.50208,7.84587c-2.89521,3.6115-5.62946,7.02281-9.02475,8.12521A9.17576,9.17576,0,0,1,99.39583,146.55088Z"/><path class="cls-6" d="M99.39583,142.93524a34.0956,34.0956,0,0,1-7.86937-1.53455,45.844,45.844,0,0,0-12.02713-2.089,45.81857,45.81857,0,0,0-12.01858,2.08642,34.16711,34.16711,0,0,1-7.87858,1.53709,5.65326,5.65326,0,0,1-1.75076-.23476c-2.3683-.76875-4.7737-3.77006-7.3207-6.94767a44.04015,44.04015,0,0,0-8.19595-8.50838,44.57529,44.57529,0,0,0-10.71959-5.242c-3.781-1.43926-7.35233-2.79858-8.781-4.76222-1.397-1.91946-1.59195-5.71421-1.79895-9.7313A45.23056,45.23056,0,0,0,19.33993,95.6251a43.29621,43.29621,0,0,0-5.48826-10.28491c-2.25659-3.4332-4.38652-6.67367-4.38652-9.26485,0-2.59252,2.12993-5.83246,4.38519-9.263A43.28343,43.28343,0,0,0,19.339,56.52611,45.22748,45.22748,0,0,0,21.03517,44.645c.207-4.02123.402-7.81558,1.79855-9.7337,1.42858-1.96351,4.99991-3.32336,8.78105-4.763a44.57717,44.57717,0,0,0,10.72-5.24229A44.07944,44.07944,0,0,0,50.528,16.40107c2.54967-3.18082,4.95547-6.18253,7.322-6.95034a5.65721,5.65721,0,0,1,1.753-.2353,34.10815,34.10815,0,0,1,7.87817,1.53723,45.83265,45.83265,0,0,0,12.01805,2.08575,45.84423,45.84423,0,0,0,12.01486-2.08482,34.11567,34.11567,0,0,1,7.88164-1.53816,5.65754,5.65754,0,0,1,1.7517.2349c2.36749.76821,4.77329,3.76992,7.3203,6.94767a44.07076,44.07076,0,0,0,8.19594,8.508,44.56427,44.56427,0,0,0,10.71586,5.24055c3.78514,1.4414,7.3566,2.80125,8.78479,4.764,1.39682,1.91946,1.59194,5.7142,1.79894,9.7313a45.23133,45.23133,0,0,0,1.69511,11.88392,43.29225,43.29225,0,0,0,5.48692,10.28264c2.25753,3.43413,4.388,6.67541,4.388,9.267,0,2.59078-2.12953,5.83112-4.384,9.26178A43.28,43.28,0,0,0,139.659,95.62456a45.21538,45.21538,0,0,0-1.69565,11.88393c-.207,4.01749-.40212,7.81224-1.79894,9.7317-1.42872,1.96364-5.00018,3.323-8.78065,4.76222a44.55854,44.55854,0,0,0-10.7196,5.242,44.03875,44.03875,0,0,0-8.19594,8.50785c-2.54834,3.17868-4.95374,6.17945-7.3203,6.9478A5.65118,5.65118,0,0,1,99.39583,142.93524Z"/><path class="cls-7" d="M28.80017,53.52675a.77326.77326,0,0,0-.07428.44716.39194.39194,0,0,0,.227.32154l1.4602.70068-.313.65165-3.44581-1.654-.46739.9734,3.44622,1.654-.328.68295-4.121-1.9781,1.88753-3.93281.67523.324-.78,1.625,1.23234.59134a.83347.83347,0,0,1-.00167-.84111,1.46,1.46,0,0,1,1.10089-.80438,2.19946,2.19946,0,0,1,1.3855.19176,3.96707,3.96707,0,0,1,1.00824.6965l.39562-.8242-4.43527-2.12875.30548-.636,5.03913,2.419L32.16084,53.749a2.92476,2.92476,0,0,1,.24079,3.10006,3.1667,3.1667,0,0,1-.58007.84173,2.52969,2.52969,0,0,1-.72947.53855,1.04956,1.04956,0,0,1-.934.03464.83142.83142,0,0,1-.41816-.447.69323.69323,0,0,1,.00793-.5903l1.58623-3.30454a3.20011,3.20011,0,0,0-1.00532-.76265,1.37516,1.37516,0,0,0-.8939-.125A.86209.86209,0,0,0,28.80017,53.52675Zm2.97632,1.02306-1.38258,2.88075q-.06072.12552.08889.19719a.46805.46805,0,0,0,.46948-.10788,2.35265,2.35265,0,0,0,.487-.45675,2.65965,2.65965,0,0,0,.30756-.49954A2.17212,2.17212,0,0,0,31.77649,54.54981Z"/><path class="cls-7" d="M33.162,47.71829a1.25791,1.25791,0,0,1,.54.84758,1.28123,1.28123,0,0,1-.26333.97235,1.66617,1.66617,0,0,1-1.31455.72176,2.23622,2.23622,0,0,1-1.44935-.46615,2.54716,2.54716,0,0,1-1.1155-1.88274,3.17812,3.17812,0,0,1,.67731-2.13667,3.04179,3.04179,0,0,1,1.44226-1.10277,2.86755,2.86755,0,0,1,.55921-1.65091,2.993,2.993,0,0,1,1.4097-1.07293l.005-.00709a1.9801,1.9801,0,0,1,.396-1.22045l1.81826-2.48869.57674.42129-.84257,1.15284,3.14242,2.29651-.452.61867-3.14242-2.2965-.52415.71716a.95158.95158,0,0,0-.21533.61909,2.7743,2.7743,0,0,1,2.03568.5494q1.48358,1.0842.73323,2.11039a1.14107,1.14107,0,0,1-1.1518.4845,2.73079,2.73079,0,0,1-1.22943-.53145,2.57386,2.57386,0,0,1-1.09212-1.69327,1.903,1.903,0,0,0-.876.69713,1.47544,1.47544,0,0,0-.3614,1.04058,2.816,2.816,0,0,1,2.05613.52144,3.123,3.123,0,0,1,.53.48138,2.061,2.061,0,0,1,.33427.52749,1.08206,1.08206,0,0,1,.08179.56672,1.19161,1.19161,0,0,1-.23328.56276,1.14269,1.14269,0,0,1-.487.39353,1.24586,1.24586,0,0,1-.6047.08951,2.26626,2.26626,0,0,1-.64559-.16442,3.07542,3.07542,0,0,1-.64392-.36557,2.69,2.69,0,0,1-1.09839-1.65488,2.587,2.587,0,0,0-.95148.81482,2.4734,2.4734,0,0,0-.51706,1.56327,1.72682,1.72682,0,0,0,.74909,1.41013,1.6965,1.6965,0,0,0,.84757.36035,1.009,1.009,0,0,1-.3013-.13375.96653.96653,0,0,1-.40856-.68419,1.06626,1.06626,0,0,1,.21075-.78686,1.11544,1.11544,0,0,1,.82086-.48117A1.35683,1.35683,0,0,1,33.162,47.71829ZM30.8008,41.7114a.51331.51331,0,0,1,.41356-.21534.78929.78929,0,0,1,.78.56714.52972.52972,0,0,1-.49619.67543.76464.76464,0,0,1-.76912-.56735A.512.512,0,0,1,30.8008,41.7114ZM32.90033,49.08a.48026.48026,0,0,0,.076-.4215.66721.66721,0,0,0-.26374-.38435.65665.65665,0,0,0-.44111-.13375.48272.48272,0,0,0-.37642.20491.504.504,0,0,0-.08889.43129.64993.64993,0,0,0,.25916.38331.65825.65825,0,0,0,.44861.13125A.50157.50157,0,0,0,32.90033,49.08ZM34.03,45.52716a2.1411,2.1411,0,0,0-1.60709-.39812,1.942,1.942,0,0,0,.91351,1.3471q.91394.66792,1.25279.20386Q34.94415,46.19487,34.03,45.52716ZM35.94092,42.912a2.09924,2.09924,0,0,0-1.56077-.46135,1.91689,1.91689,0,0,0,.89807,1.36818q.91392.66792,1.25321.20386Q36.85506,43.57984,35.94092,42.912Z"/><path class="cls-7" d="M39.82574,36.41708a1.38079,1.38079,0,0,1-.39812-1.01847,1.363,1.363,0,0,1,.44194-.99447,2.11642,2.11642,0,0,1,1.91592-.5252,3.1554,3.1554,0,0,1,1.82368.95671,1.97466,1.97466,0,0,1,.613,1.35774,1.76114,1.76114,0,0,1-.61763,1.315l-3.36192,3.19917-3.23506-3.39969.56129-.53417,2.70089,2.83839,1.36255-1.29661Zm.59719-1.49421a.62571.62571,0,0,0-.19572.44778.60359.60359,0,0,0,.16734.457l1.83078,1.92364.95858-.91226q.5928-.56433-.16317-1.359a2.80352,2.80352,0,0,0-1.244-.75139A1.30387,1.30387,0,0,0,40.42293,34.92287Z"/><path class="cls-7" d="M46.57171,30.19193l-1.14178.872,2.36244,3.09318-.58133.44381L44.8486,31.50773l-1.06542.814,2.3516,3.07919-.58842.44924-2.7902-3.65363,3.377-2.579Z"/><path class="cls-7" d="M51.542,30.185a1.25818,1.25818,0,0,1,.11936.99781,1.28064,1.28064,0,0,1-.65812.76244,1.66693,1.66693,0,0,1-1.49734.08117,2.23438,2.23438,0,0,1-1.10464-1.04789,2.54475,2.54475,0,0,1-.18988-2.18007,3.17588,3.17588,0,0,1,1.53532-1.63256,3.04162,3.04162,0,0,1,1.77778-.36932,2.86758,2.86758,0,0,1,1.2194-1.24591,2.99469,2.99469,0,0,1,1.73522-.3566l.00751-.004a1.98172,1.98172,0,0,1,.88555-.92875l2.71675-1.4554.33719.62932-1.25863.67439,1.83787,3.43078-.67564.36181-1.83745-3.43078-.7829.4192a.952.952,0,0,0-.46239.46489,2.77623,2.77623,0,0,1,1.59709,1.377q.8676,1.61972-.25332,2.21972a1.141,1.141,0,0,1-1.2482-.06218,2.72578,2.72578,0,0,1-.87762-1.01158,2.572,2.572,0,0,1-.25123-1.999,1.90129,1.90129,0,0,0-1.09129.24872,1.47622,1.47622,0,0,0-.77663.78143,2.81634,2.81634,0,0,1,1.62755,1.36046,3.14024,3.14024,0,0,1,.26917.66354,2.05151,2.05151,0,0,1,.07261.62013,1.08135,1.08135,0,0,1-.17152.54628,1.18894,1.18894,0,0,1-.454.40626,1.14183,1.14183,0,0,1-.60929.14376,1.24573,1.24573,0,0,1-.58383-.18132,2.2534,2.2534,0,0,1-.51038-.42775,3.04687,3.04687,0,0,1-.42233-.60846,2.69046,2.69046,0,0,1-.27376-1.96724,2.5883,2.5883,0,0,0-1.21022.32217,2.4765,2.4765,0,0,0-1.143,1.1854,1.72664,1.72664,0,0,0,.06468,1.5952,1.69155,1.69155,0,0,0,.60762.69191,1.00993,1.00993,0,0,1-.21367-.251.96645.96645,0,0,1-.07178-.79374,1.06337,1.06337,0,0,1,.53083-.61764,1.115,1.115,0,0,1,.94815-.07845A1.35754,1.35754,0,0,1,51.542,30.185Zm-.82587,1.114a.4793.4793,0,0,0,.25123-.347.66676.66676,0,0,0-.07137-.46051.65824.65824,0,0,0-.33969-.31194.483.483,0,0,0-.42817.0219.50448.50448,0,0,0-.26667.35014.64769.64769,0,0,0,.0676.45779.65626.65626,0,0,0,.34763.31258A.50058.50058,0,0,0,50.71611,31.29907Zm1.29911-7.551a.514.514,0,0,1,.46615-.015.78943.78943,0,0,1,.45738.849.52971.52971,0,0,1-.73991.39374.76446.76446,0,0,1-.44736-.84444A.51227.51227,0,0,1,52.01522,23.7481Zm1.25822,4.838a2.14261,2.14261,0,0,0-1.27658-1.055,1.94166,1.94166,0,0,0,.24038,1.61q.53458.9978,1.04079.72634Q53.8076,29.58389,53.27344,28.58608Zm2.85488-1.52947a2.09853,2.09853,0,0,0-1.20688-1.09192,1.91669,1.91669,0,0,0,.217,1.62233q.53458.99782,1.0408.72634Q56.66311,28.05452,56.12832,27.05661Z"/><path class="cls-7" d="M66.64018,23.7241a1.42523,1.42523,0,0,1-.14064,1.22525,1.84156,1.84156,0,0,1-1.09087.71675,2.09773,2.09773,0,0,1-1.40094-.09828,1.48776,1.48776,0,0,1-.926-.98967,1.27482,1.27482,0,0,1,.03255-.93981,1.08613,1.08613,0,0,1,.72363-.51768l.02087-.00563-.5204-1.87085,3.74127-1.04058.19864.7132L65.9612,21.283l.32175,1.15765.33553-.09327a1.4693,1.4693,0,0,1,1.28785.21116,2.10261,2.10261,0,0,1,.48784,2.79249,2.43938,2.43938,0,0,1-1.40887.97924l-2.12207.5903a.46136.46136,0,0,0-.28586.20824.42121.42121,0,0,0-.04006.34325.3365.3365,0,0,0,.33051.27856l-.34721.60282a1.05993,1.05993,0,0,1-.60469-1.56474,1.10892,1.10892,0,0,1,.67647-.51581l2.22306-.61826a1.54656,1.54656,0,0,0,.92812-.69212,1.35394,1.35394,0,0,0,.1565-1.12781.987.987,0,0,0-.46573-.63432,1.02129,1.02129,0,0,0-.795-.06344.45068.45068,0,0,0-.15107.04195Zm-2.84069.67251a.83514.83514,0,0,0,.55128.5517,1.34928,1.34928,0,0,0,.87386.05509q.89766-.24947.72614-1.06041l-.15858-.57048-1.53532.42692Q63.67847,23.96062,63.79949,24.39661Zm1.78737-1.76234-.32217-1.15764-1.01492.28232.32217,1.15764Z"/><path class="cls-7" d="M72.35829,18.32128a1.56442,1.56442,0,0,1,.38685-1.33772,2.18766,2.18766,0,0,1,1.3638-.66562,2.00086,2.00086,0,0,1,1.45478.34157,1.71772,1.71772,0,0,1,.76119,1.22984l.76745,5.4842-.72447.10141-.76035-5.43245a1.01563,1.01563,0,0,0-.48159-.74158,1.29707,1.29707,0,0,0-.90809-.207q-1.28513.18-1.13761,1.23193a1.11912,1.11912,0,0,0,.58091.94731l.11059.03735a2.47816,2.47816,0,0,1,1.20146.92186,3.16582,3.16582,0,0,1,.598,1.44622,1.92017,1.92017,0,0,1-.29254,1.42557,1.73033,1.73033,0,0,1-1.239.6965l-4.4841.62765-.63474-4.53584.75034-.105L70.202,23.5818l1.81951-.25478-.35472-2.535a1.379,1.379,0,0,1,.22744-.99677,1.27362,1.27362,0,0,1,.82128-.5567A1.80349,1.80349,0,0,1,72.35829,18.32128Zm.62222,1.61857a.591.591,0,0,0-.40522.24351.60765.60765,0,0,0-.12018.463l.35972,2.56965L74.091,23.0374q.79311-.11079.64392-1.18017a2.67875,2.67875,0,0,0-.56046-1.302A1.28766,1.28766,0,0,0,72.98051,19.93985Z"/><path class="cls-7" d="M78.56424,25.05556a.58734.58734,0,0,0,.30673.50663,1.23037,1.23037,0,0,0,.68858.18257,1.1604,1.1604,0,0,0,.73657-.23829,3.22618,3.22618,0,0,0,.47908-.5302,2.56458,2.56458,0,0,1,.53083-.5398q-.77559-.06573-.79124-1.01471l-2.60323.04214-.07429-4.57924.75744-.01231.06218,3.83057,1.837-.02984-.04173-2.55941a1.408,1.408,0,0,1,.38435-.99907,1.27846,1.27846,0,0,1,.96859-.425,2.08058,2.08058,0,0,1,1.72979.88639,3.048,3.048,0,0,1,.684,1.89609,1.92007,1.92007,0,0,1-.46531,1.379,1.73008,1.73008,0,0,1-1.315.53939l-1.11425.01815.00167.11309q.00751.44413.669.43339l1.08837-.01774.01252.79228-.79207.01273a1.05394,1.05394,0,0,0-.7157.4384,10.81122,10.81122,0,0,1-.73574.81314,2.04844,2.04844,0,0,1-1.29869.45634,1.97611,1.97611,0,0,1-1.14638-.32968,1.19953,1.19953,0,0,1-.25415-1.86813,1.23169,1.23169,0,0,1,.88889-.3541l.8793-.01419.01168.71383-.91435.01481Q78.55736,24.6203,78.56424,25.05556Zm3.14868-8.289a.51382.51382,0,0,1,.42149.2001.78878.78878,0,0,1,.01753.964.5294.5294,0,0,1-.838.01147.7642.7642,0,0,1-.01085-.95545A.51176.51176,0,0,1,81.71292,16.76656Zm.14773,2.66228a.59162.59162,0,0,0-.43234.19218.60825.60825,0,0,0-.1757.44465l.04215,2.59448,1.28868-.02087q.80064-.01314.78331-1.09254a2.68191,2.68191,0,0,0-.39645-1.36067A1.28806,1.28806,0,0,0,81.86065,19.42884Z"/><path class="cls-7" d="M89.41538,21.355a1.1298,1.1298,0,0,1,.86844.48451,1.55915,1.55915,0,0,1,.19656,1.05957q-.16087,1.38374-1.32,1.24883a1.52757,1.52757,0,0,1-.64226-.20616l.33094-.58382a.67112.67112,0,0,0,.34262.145q.49264.05729.57631-.6604.08076-.692-.47282-.7564l-.55378-.06426-.063.54481a1.40659,1.40659,0,0,1-.57965,1.06124,1.79157,1.79157,0,0,1-1.25613.25039,2.102,2.102,0,0,1-1.24612-.592,1.453,1.453,0,0,1-.502-1.25927,1.01988,1.01988,0,0,1,1.26781-1.02723l.02587.00313.21951-1.88545,3.77048.43861-.08346.71779L88.963,20.11909l-.136,1.16745Zm-3.61273.76328a.81429.81429,0,0,0,.32342.70381,1.41809,1.41809,0,0,0,.795.38164q.89954.10485,1.04372-.685l.0676-.57945-1.53949-.179Q85.85314,21.68571,85.80265,22.11826Zm2.31528-.91414.13563-1.16745L87.242,19.91878l-.136,1.16766Zm.424-3.72a.52231.52231,0,0,1,.83005.09661.78657.78657,0,0,1-.10892.95587.53346.53346,0,0,1-.83464-.097.78558.78558,0,0,1,.11351-.95545Z"/><path class="cls-7" d="M98.41362,23.37042a1.14682,1.14682,0,0,1,.79249.63162,1.58671,1.58671,0,0,1,.03255,1.10109q-.3856,1.375-1.55118,1.04789a1.5548,1.5548,0,0,1-.61012-.30694l.42942-.53062a.72975.72975,0,0,0,.32384.19927q.49452.139.69442-.57381.19281-.68733-.36891-.84486l-.5446-.153-.15316.54481a1.43013,1.43013,0,0,1-.75075.97611,1.83841,1.83841,0,0,1-1.30872.04653,2.15617,2.15617,0,0,1-1.1639-.815,1.48058,1.48058,0,0,1-.31257-1.33563,1.047,1.047,0,0,1,1.4481-.84153l.025.0071.525-1.8696,3.73877,1.04935-.1999.71258-1.31623-.36933-.32467,1.15681Zm-3.783.20428a.73032.73032,0,0,0,.05926.52082,1.35209,1.35209,0,0,0,.3735.47345,1.43584,1.43584,0,0,0,.52165.2773.83729.83729,0,0,0,1.17058-.53041l.15983-.57006-1.52572-.42817Q94.75248,23.13861,94.63062,23.5747Zm2.49223-.56672.32467-1.15681-1.0145-.28461-.32467,1.15681Z"/><path class="cls-7" d="M104.53945,28.13872a.84327.84327,0,0,0,.68106.00479,1.43524,1.43524,0,0,0,.58008-.454,3.31456,3.31456,0,0,0,.42691-.746,2.20988,2.20988,0,0,0-.08763-2.24956l.65268-.29108a2.71666,2.71666,0,0,1,.20073,2.742,4.17154,4.17154,0,0,1-.48409.86364,2.69037,2.69037,0,0,1-.60845.60511,1.5258,1.5258,0,0,1-.74032.275,1.70267,1.70267,0,0,1-.84007-.14293,1.40354,1.40354,0,0,1-.82587-.84132,1.60321,1.60321,0,0,1,.053-1.19729l.5976-1.41116a.88561.88561,0,0,0-.01627-.79875,1.29387,1.29387,0,0,0-.67105-.57006,1.82684,1.82684,0,0,0-1.43517-.03318,1.77143,1.77143,0,0,0-1.00824,1.003,1.72261,1.72261,0,0,0-.12353,1.07293,1.036,1.036,0,0,1,.06177-.25749,1.1274,1.1274,0,0,1,.59843-.626,1.03183,1.03183,0,0,1,.84508.00793,1.114,1.114,0,0,1,.656.6892,1.3549,1.3549,0,0,1-.05425.99343,1.25743,1.25743,0,0,1-.70151.71925,1.28109,1.28109,0,0,1-1.007-.0338,1.74459,1.74459,0,0,1-1.0675-1.20835,2.51455,2.51455,0,0,1,.15441-1.63673,2.46214,2.46214,0,0,1,1.38174-1.41012,2.525,2.525,0,0,1,1.9781.06239,2.106,2.106,0,0,1,1.03871.87449,1.362,1.362,0,0,1,.09014,1.30538l-.611,1.44309a1.30079,1.30079,0,0,0-.101.75159A.62379.62379,0,0,0,104.53945,28.13872Zm-2.92708-1.30538a.48125.48125,0,0,0,.42817-.02212.66985.66985,0,0,0,.31341-.3447.65737.65737,0,0,0,.02963-.46031.48194.48194,0,0,0-.28545-.31945.50389.50389,0,0,0-.44027.01231.64611.64611,0,0,0-.31383.33969.65732.65732,0,0,0-.02545.467A.501.501,0,0,0,101.61237,26.83334Zm4.19239-4.78707a.51432.51432,0,0,1,.30423.35347.79056.79056,0,0,1-.37392.88889.52954.52954,0,0,1-.77079-.32885.7644.7644,0,0,1,.37642-.87825A.51186.51186,0,0,1,105.80476,22.04627Z"/><path class="cls-7" d="M110.033,30.37075a1.258,1.258,0,0,1-.805.60135,1.28167,1.28167,0,0,1-.98946-.19008,1.74211,1.74211,0,0,1-.85426-1.36255,2.64617,2.64617,0,0,1,1.96433-2.777,2.56364,2.56364,0,0,1,1.94721.38122,2.59787,2.59787,0,0,1,1.2194,1.6,2.45465,2.45465,0,0,1-.33969,1.96265,2.48092,2.48092,0,0,1-1.15848.97131l1.87793,1.16871,1.196-1.922a1.87545,1.87545,0,0,1-.8772-1.32561,2.18676,2.18676,0,0,1,.28586-1.59625,2.33311,2.33311,0,0,1,1.33626-1.07585,1.95325,1.95325,0,0,1,1.63213.27752,2.10436,2.10436,0,0,1,.93647,1.19812,1.71589,1.71589,0,0,1-.20783,1.47064l-2.90329,4.66437-.61346-.38184,2.81566-4.524a1.23515,1.23515,0,0,0,.16567-.97883,1.2732,1.2732,0,0,0-.59343-.80542,1.24454,1.24454,0,0,0-1.07543-.159,1.63292,1.63292,0,0,0-.89473.73761,1.432,1.432,0,0,0-.1782,1.02765,1.19507,1.19507,0,0,0,.54878.86469l.47866-.76871.61346.38185L113.13581,33.707l-3.28973-2.04758.22076-.43693a2.007,2.007,0,0,0,1.44643-.95608,1.89368,1.89368,0,0,0,.26917-1.45812,1.83343,1.83343,0,0,0-.86677-1.19061,1.81487,1.81487,0,0,0-2.55441.59468,1.96266,1.96266,0,0,0-.30172,1.012,1.37372,1.37372,0,0,1,.11851-.22347,1.13911,1.13911,0,0,1,.684-.53062,1.02084,1.02084,0,0,1,.83088.14,1.13035,1.13035,0,0,1,.54753.78456A1.34807,1.34807,0,0,1,110.033,30.37075Zm-1.37716-.15984a.48224.48224,0,0,0,.42484.04654.72459.72459,0,0,0,.47407-.74575.4838.4838,0,0,0-.24121-.35786.50974.50974,0,0,0-.43735-.06739.72.72,0,0,0-.46406.75743A.50394.50394,0,0,0,108.65588,30.21091Z"/><path class="cls-7" d="M119.67562,35.615a1.12937,1.12937,0,0,1,.45905.88221,1.55653,1.55653,0,0,1-.41815.993q-.89578,1.0673-1.78947.31758a1.52638,1.52638,0,0,1-.42274-.5254l.59718-.30569a.67409.67409,0,0,0,.20657.30945q.38.31893.84466-.23475.44757-.53364.02045-.89181l-.42692-.35806-.35222.42024a1.40578,1.40578,0,0,1-1.0675.56777,1.79233,1.79233,0,0,1-1.18728-.48138,2.10684,2.10684,0,0,1-.71528-1.17976,1.45262,1.45262,0,0,1,.27334-1.32791,1.01954,1.01954,0,0,1,1.62338-.16088l.02.0169,1.22024-1.45436,2.9083,2.43986-.46448.55357-1.02744-.86176-.75535.90058Zm-3.437-1.349a.81462.81462,0,0,0-.11685.76578,1.41933,1.41933,0,0,0,.454.756.81491.81491,0,0,0,1.24862.00188l.37517-.447-1.18769-.99614Q116.5186,33.93246,116.23858,34.266Zm2.43631.50954.75576-.90057-.7808-.65457-.75535.90058Zm2.39958-2.87408a.52272.52272,0,0,1,.64059.5373.78621.78621,0,0,1-.6168.73845.53329.53329,0,0,1-.64351-.54.7859.7859,0,0,1,.61972-.73574Z"/><path class="cls-7" d="M124.35878,40.2078a1.14836,1.14836,0,0,1,.35931.94773,1.58821,1.58821,0,0,1-.53375.96359q-1.03287.9856-1.86834.11a1.55414,1.55414,0,0,1-.3685-.57506l.63975-.23767a.73428.73428,0,0,0,.177.33678q.35493.37152.89014-.13917.51644-.493.11393-.915l-.39061-.40939-.40981.39061a1.43056,1.43056,0,0,1-1.14387.45655,1.83732,1.83732,0,0,1-1.14888-.62744,2.1562,2.1562,0,0,1-.5855-1.29473,1.48,1.48,0,0,1,.41231-1.30809,1.04676,1.04676,0,0,1,1.6747.01461l.01836.019,1.4047-1.34042,2.68086,2.8096-.53542.5108-.944-.989-.86927.82963Zm-3.35859-1.754a.7316.7316,0,0,0-.2145.47846,1.34994,1.34994,0,0,0,.08012.59781,1.43144,1.43144,0,0,0,.30673.50454.8379.8379,0,0,0,1.27783.14085l.42817-.40877-1.09379-1.14658Q121.32779,38.14124,121.00019,38.4538Zm2.433.78394.86928-.82942-.72739-.76224-.86928.82943Z"/><path class="cls-7" d="M128.06123,43.77191a1.38109,1.38109,0,0,1,1.05874-.27334,1.36464,1.36464,0,0,1,.93438.55775,2.11614,2.11614,0,0,1,.29212,1.96515,3.15587,3.15587,0,0,1-1.16807,1.6962,1.97238,1.97238,0,0,1-1.42265.44444,1.764,1.764,0,0,1-1.23025-.76891l-.68691-.92144-.091.06761q-.36306.27042.04841.82211l.66062.88639-.64893.48409-.48952-.65623a1.05718,1.05718,0,0,0-.7929-.32092q-.96213-.08106-1.12134-.12a2.08841,2.08841,0,0,1-1.15013-.81482,1.98463,1.98463,0,0,1-.41148-1.14867,1.16505,1.16505,0,0,1,.45613-1.07835,1.18424,1.18424,0,0,1,.94606-.2602,1.30411,1.30411,0,0,1,.82421.53688l.53584.719-.59343.44236-.55671-.747a.40094.40094,0,0,0-.63015-.11664.60123.60123,0,0,0-.24288.55566,1.39733,1.39733,0,0,0,.90684,1.16495,3.64842,3.64842,0,0,0,.71194.06656,2.77394,2.77394,0,0,1,.78.11372q-.40062-.69015.36391-1.25989l-1.59249-2.13605,3.76255-2.805.46322.62139-3.14116,2.34179L125.96,45.33832Zm1.41179.772a.62435.62435,0,0,0-.42107-.24809.60526.60526,0,0,0-.47366.11142l-2.12875,1.58728.79083,1.061q.48888.65634,1.3688.00042a2.77,2.77,0,0,0,.89473-1.14492A1.30291,1.30291,0,0,0,129.473,44.544Z"/><path class="cls-7" d="M132.47146,51.88919a1.14714,1.14714,0,0,1,.121,1.00616,1.58858,1.58858,0,0,1-.7495.80688q-1.24007.7083-1.84038-.34261a1.54929,1.54929,0,0,1-.21909-.64685l.67814-.07658a.7308.7308,0,0,0,.09056.36933q.25477.446.89765.07887.61973-.354.33052-.86051l-.28085-.4916-.49119.28085a1.431,1.431,0,0,1-1.22024.168,1.8372,1.8372,0,0,1-.96443-.88535,2.15514,2.15514,0,0,1-.25706-1.3976,1.47939,1.47939,0,0,1,.71528-1.17058,1.04707,1.04707,0,0,1,1.62212.41711l.01294.02274,1.686-.96317,1.92593,3.37194-.64268.367-.67772-1.18685-1.04372.59593Zm-2.83777-2.51038a.73132.73132,0,0,0-.323.41273,1.3396,1.3396,0,0,0-.06636.59947,1.4311,1.4311,0,0,0,.17653.56359.83735.83735,0,0,0,1.20605.444l.51414-.29379-.78581-1.3759Q130.02659,49.15429,129.63369,49.37881Zm2.173,1.34606,1.0433-.59614-.5229-.91476-1.0433.59593Z"/><path class="cls-7" d="M135.19447,60.09056a1.92025,1.92025,0,0,1-1.45311.08388,1.73116,1.73116,0,0,1-.99155-1.018L130.99,54.98466l4.21993-1.78008.29421.698-3.52968,1.489.714,1.69265,2.35869-.99489a1.40372,1.40372,0,0,1,1.07-.01669,1.278,1.278,0,0,1,.75619.73949,2.081,2.081,0,0,1-.1757,1.93573A3.04968,3.04968,0,0,1,135.19447,60.09056Zm1.01367-2.95087a.5896.5896,0,0,0-.3397-.32905.60629.60629,0,0,0-.47825.00313l-2.3904,1.00866.50078,1.18727q.31111.738,1.30621.31842a2.67833,2.67833,0,0,0,1.11383-.87637A1.28719,1.28719,0,0,0,136.20814,57.13969Zm2.39416-1.17976a.5136.5136,0,0,1-.028.46531.78919.78919,0,0,1-.88764.37684.52984.52984,0,0,1-.32384-.77308.76484.76484,0,0,1,.88221-.36724A.5125.5125,0,0,1,138.6023,55.95993Z"/><path class="cls-7" d="M29.67153,104.46516,33.52589,98.573l-.74825.44653-4.68608,2.61284-.41648-.747,6.50267-3.62609.57172,1.02452-3.80678,5.88337.65644-.38978,4.73991-2.64288.4169.74783-6.50308,3.62609Z"/><path class="cls-7" d="M33.83012,109.67623a1.73,1.73,0,0,1-1.34-.7854,2.09991,2.09991,0,0,1-.43276-1.16557,1.98553,1.98553,0,0,1,.3084-1.11716,2.7215,2.7215,0,0,1,.75409-.76829l2.64747-1.90089.51665.7203-2.6095,1.87376a1.56337,1.56337,0,0,0-.65978.89974,1.20854,1.20854,0,0,0,.23829,1.01742,1.243,1.243,0,0,0,.61846.48368,1.35391,1.35391,0,0,0,.7445.02671,1.79383,1.79383,0,0,0,.59134-.29213l2.60992-1.87376.52.72446L33.929,110.68364l-.487-.67856Z"/><path class="cls-7" d="M39.43263,109.48593a1.71349,1.71349,0,0,1,1.41889.63641,2.09321,2.09321,0,0,1,.55461,1.11883,1.99921,1.99921,0,0,1-.19029,1.14513,2.7141,2.7141,0,0,1-.66521.84006l-2.45509,2.18926-.59385-.66521,2.41712-2.15545a1.58232,1.58232,0,0,0,.56713-.9661,1.202,1.202,0,0,0-.343-.98445,1.224,1.224,0,0,0-1.41263-.36057,1.71893,1.71893,0,0,0-.56088.3493l-2.41711,2.155-.58967-.66145,4.07679-3.63569.55545.62348Z"/><path class="cls-7" d="M43.38631,113.66246a1.754,1.754,0,0,1,.43694-.035,1.56709,1.56709,0,0,1,.45571.09681,1.35821,1.35821,0,0,1,.43777.25749,1.6298,1.6298,0,0,1,.51413.76453,1.88241,1.88241,0,0,1,.0505.88388,1.87332,1.87332,0,0,1,.89223-.07052,1.68055,1.68055,0,0,1,.83547.409,1.79419,1.79419,0,0,1,.39771.47992,1.57472,1.57472,0,0,1,.18529.53709,1.97015,1.97015,0,0,1,.00417.54251,2.52633,2.52633,0,0,1-.13563.54043,2.8742,2.8742,0,0,1-.53458.85884l-2.12792,2.45509-.66979-.58049,2.10412-2.428a1.86688,1.86688,0,0,0,.48534-.9661,1.03309,1.03309,0,0,0-1.2265-1.07334,1.75874,1.75874,0,0,0-.873.59342l-2.12791,2.45468-.6698-.58091,2.10454-2.428a1.86868,1.86868,0,0,0,.48493-.96651,1.02521,1.02521,0,0,0-1.23652-1.065,1.85541,1.85541,0,0,0-.88639.61179L40.183,117.382l-.67021-.58049,3.551-4.09683.631.54711Z"/><path class="cls-7" d="M50.84423,119.65475A.99046.99046,0,0,0,49.493,119.79l-.60553-.69108a2.12962,2.12962,0,0,1,1.17517-.462,2.0423,2.0423,0,0,1,1.27532.386,2.35736,2.35736,0,0,1,.651.62639,1.86787,1.86787,0,0,1,.30715.72781,2.0419,2.0419,0,0,1-.01586.77329,2.59152,2.59152,0,0,1-.40522.92478l-1.85248,2.78686-.7253-.48284.26959-.47908a2.01006,2.01006,0,0,1-1.6434-.30423,2.17679,2.17679,0,0,1-.775-.83839,1.62061,1.62061,0,0,1-.15858-.98863,1.68741,1.68741,0,0,1,.26917-.664,1.80436,1.80436,0,0,1,.45279-.477,1.51965,1.51965,0,0,1,.54084-.24956,2.00655,2.00655,0,0,1,.57215-.05091,2.46058,2.46058,0,0,1,.57924.10516,2.90286,2.90286,0,0,1,.76786.36307,2.55542,2.55542,0,0,1,.83423.87387l.08513-.12812a1.63065,1.63065,0,0,0,.33093-1.05331A1.14916,1.14916,0,0,0,50.84423,119.65475Zm-1.09338,1.82076a1.6165,1.6165,0,0,0-.94356-.31632.90292.90292,0,0,0-.73615.45487q-.50454.75995.46364,1.40345a1.33852,1.33852,0,0,0,.75618.24705,1.18809,1.18809,0,0,0,.69067-.22076,1.43447,1.43447,0,0,0,.36348-.37934l.20449-.30757A1.95186,1.95186,0,0,0,49.75085,121.47551Z"/><path class="cls-7" d="M55.76609,122.513a.98953.98953,0,0,0-1.33.2746l-.67355-.62431a2.1233,2.1233,0,0,1,1.1205-.58175,2.03422,2.03422,0,0,1,1.3083.25206,2.32887,2.32887,0,0,1,.71236.55546,1.85705,1.85705,0,0,1,.38143.69149,2.05359,2.05359,0,0,1,.06427.77121,2.58143,2.58143,0,0,1-.30673.96109L55.48982,127.777l-.772-.40438.21868-.50495a2.011,2.011,0,0,1-1.66636-.13188,2.1821,2.1821,0,0,1-.85759-.75326,1.6195,1.6195,0,0,1-.26-.96693,1.67211,1.67211,0,0,1,.19865-.68816,1.78323,1.78323,0,0,1,.40062-.52165,1.52435,1.52435,0,0,1,.51205-.30464,2.04238,2.04238,0,0,1,.56338-.10934,2.43662,2.43662,0,0,1,.58759.04466,2.86781,2.86781,0,0,1,.80084.28085,2.55218,2.55218,0,0,1,.9206.78289l.07136-.136a1.62872,1.62872,0,0,0,.21993-1.08253A1.14888,1.14888,0,0,0,55.76609,122.513Zm-.89807,1.92426a1.61781,1.61781,0,0,0-.97152-.217.90507.90507,0,0,0-.68524.52958q-.42254.80751.6072,1.34752a1.34281,1.34281,0,0,0,.77747.16693,1.19093,1.19093,0,0,0,.66437-.29087,1.44516,1.44516,0,0,0,.32217-.41607l.1711-.32634A1.95058,1.95058,0,0,0,54.868,124.43723Z"/><path class="cls-7" d="M59.875,124.24317a1.71105,1.71105,0,0,1,1.55368-.068,2.09657,2.09657,0,0,1,.99781.75034,1.99909,1.99909,0,0,1,.34345,1.10882,2.70069,2.70069,0,0,1-.217,1.04956L61.34148,130.142l-.8288-.328,1.19228-3.011a1.58065,1.58065,0,0,0,.07345-1.11716,1.202,1.202,0,0,0-.74867-.72656,1.22287,1.22287,0,0,0-1.42431.31216,1.71583,1.71583,0,0,0-.34429.5638l-1.1927,3.01054-.82421-.32634,2.01148-5.07878.77663.308Z"/><path class="cls-7" d="M70.0526,125.56441l-1.91717-.39479.16276-.79332,4.72322.97194-.16359.7929-1.91717-.39436-1.34835,6.55483-.88848-.18279Z"/><path class="cls-7" d="M75.94223,128.31037a.98961.98961,0,0,0-1.12635.75827l-.86009-.323a2.12732,2.12732,0,0,1,.81669-.96275,2.04134,2.04134,0,0,1,1.30621-.26291,2.34652,2.34652,0,0,1,.87011.24455,1.87244,1.87244,0,0,1,.61471.49535,2.06351,2.06351,0,0,1,.3518.68941,2.58783,2.58783,0,0,1,.08013,1.00616l-.31466,3.33146-.86719-.08221.01085-.54919a2.01042,2.01042,0,0,1-1.59207.50829,2.16769,2.16769,0,0,1-1.07919-.37225,1.61708,1.61708,0,0,1-.60678-.79541,1.68264,1.68264,0,0,1-.07679-.71278,1.80061,1.80061,0,0,1,.17277-.63432,1.53683,1.53683,0,0,1,.35889-.47617,2.03624,2.03624,0,0,1,.48034-.31507,2.45811,2.45811,0,0,1,.56-.18112,2.88866,2.88866,0,0,1,.848-.0434,2.55342,2.55342,0,0,1,1.148.376l.0146-.15316a1.63,1.63,0,0,0-.20615-1.08461A1.15,1.15,0,0,0,75.94223,128.31037ZM75.84,130.43119a1.61679,1.61679,0,0,0-.9807.16776.90483.90483,0,0,0-.43359.74909q-.08577.9083,1.07251,1.01742a1.34032,1.34032,0,0,0,.78289-.1398,1.19494,1.19494,0,0,0,.50412-.52123,1.42642,1.42642,0,0,0,.14064-.50663l.03463-.36682A1.94776,1.94776,0,0,0,75.84,130.43119Z"/><path class="cls-7" d="M80.38751,128.36963a1.76807,1.76807,0,0,1,.30172-.31842,1.5871,1.5871,0,0,1,.40272-.23244,1.36843,1.36843,0,0,1,.49786-.10183,1.62845,1.62845,0,0,1,.89348.22452,1.873,1.873,0,0,1,.62932.62347,1.86227,1.86227,0,0,1,.616-.64976,1.68,1.68,0,0,1,.89431-.255,1.78893,1.78893,0,0,1,.6168.091,1.55517,1.55517,0,0,1,.497.275,1.98165,1.98165,0,0,1,.36641.401,2.52462,2.52462,0,0,1,.2604.492,2.88322,2.88322,0,0,1,.17736.99614l.06093,3.248-.8868.0167-.05968-3.21253a1.87,1.87,0,0,0-.28628-1.04246,1.03234,1.03234,0,0,0-1.62921.02254,1.76062,1.76062,0,0,0-.25248,1.02451l.06093,3.24842-.88639.01627-.06009-3.21252a1.86863,1.86863,0,0,0-.28587-1.04246,1.02567,1.02567,0,0,0-1.63172.03547,1.85776,1.85776,0,0,0-.24955,1.04789l.06009,3.21252-.88638.01669-.10141-5.42056.83505-.01544Z"/><path class="cls-7" d="M88.6859,126.45246a.61067.61067,0,0,1-.9398.12436.85444.85444,0,0,1-.24663-.51539.82275.82275,0,0,1,.05174-.42775.71644.71644,0,0,1,.23829-.3134.49666.49666,0,0,1,.25457-.106.57007.57007,0,0,1,.49911.1615.92056.92056,0,0,1,.14272,1.07668Zm.79792,6.20554-.87888.116-.71027-5.36923.87845-.11644Z"/><path class="cls-7" d="M91.37261,132.33917l-1.3204-7.35358.8722-.1565,1.32081,7.35317Z"/><path class="cls-7" d="M98.63855,122.65319l4.911,6.21555-.99823.34387-1.30079-1.71434-2.708.93312.0313,2.1517-.99781.34345.04006-7.92072Zm-.13187,4.93438,2.24768-.77454-2.2723-2.94586Z"/><path class="cls-7" d="M106.94988,126.43285a1.18173,1.18173,0,0,0,.56464-.54419,1.58528,1.58528,0,0,0,.1615-.77663l.8747-.14481a2.53972,2.53972,0,0,1-.2579,1.28117,2.05517,2.05517,0,0,1-.987.91727,2.32381,2.32381,0,0,1-.74993.22744,1.85548,1.85548,0,0,1-.70193-.04382,2.43824,2.43824,0,0,1-.618-.2579,2.728,2.728,0,0,1-.54376-.42817,3.76506,3.76506,0,0,1-.70527-1.03036,3.57886,3.57886,0,0,1-.40522-1.68013,2.17293,2.17293,0,0,1,1.23151-1.92217,2.05558,2.05558,0,0,1,1.33166-.20741,2.531,2.531,0,0,1,1.1685.59468l-.6577.59218a1.62061,1.62061,0,0,0-.70276-.35639,1.17576,1.17576,0,0,0-.78373.11017,1.20057,1.20057,0,0,0-.33177.232,1.096,1.096,0,0,0-.21533.29546,1.30454,1.30454,0,0,0-.11184.34471,1.83679,1.83679,0,0,0-.03089.36515,2.545,2.545,0,0,0,.038.37767,3.18638,3.18638,0,0,0,.29045.85551,2.96466,2.96466,0,0,0,.71237.97611,1.34375,1.34375,0,0,0,.88722.34888A1.23627,1.23627,0,0,0,106.94988,126.43285Z"/><path class="cls-7" d="M109.91786,120.0512a.98992.98992,0,0,0-.43735,1.28535l-.87971.26374a2.125,2.125,0,0,1,.06677-1.26072,2.04046,2.04046,0,0,1,.88054-.9999,2.34312,2.34312,0,0,1,.84007-.3326,1.86705,1.86705,0,0,1,.78915.02212,2.05772,2.05772,0,0,1,.69776.33552,2.58567,2.58567,0,0,1,.67271.752l1.76735,2.84153-.73991.4603-.32425-.444a2.00958,2.00958,0,0,1-.959,1.36881,2.17653,2.17653,0,0,1-1.0842.35764,1.62552,1.62552,0,0,1-.96484-.26583,1.68665,1.68665,0,0,1-.49244-.52081,1.7929,1.7929,0,0,1-.24663-.60971,1.52224,1.52224,0,0,1-.00251-.59551,2.00674,2.00674,0,0,1,.19114-.54168,2.43958,2.43958,0,0,1,.33594-.48326,2.90148,2.90148,0,0,1,.64893-.54835,2.54938,2.54938,0,0,1,1.14137-.396l-.08138-.13062a1.62857,1.62857,0,0,0-.82087-.73866A1.14982,1.14982,0,0,0,109.91786,120.0512ZM111.121,121.801a1.61674,1.61674,0,0,0-.679.727.90338.90338,0,0,0,.1085.85885q.48138.775,1.46939.15983a1.33358,1.33358,0,0,0,.53834-.58467,1.19156,1.19156,0,0,0,.086-.72029,1.44766,1.44766,0,0,0-.19489-.48868l-.19489-.313A1.94656,1.94656,0,0,0,111.121,121.801Z"/><path class="cls-7" d="M114.18286,116.04577a1.75883,1.75883,0,0,1,.67815-.33051,1.925,1.925,0,0,1,.70777-.04132l-1.51779-1.94846.69943-.545,4.6072,5.91383-.65895.5133-.31173-.34178a1.39526,1.39526,0,0,1-.62306,1.2265,2.3168,2.3168,0,0,1-.69734.38018,1.84687,1.84687,0,0,1-.70736.0964,2.44707,2.44707,0,0,1-.66938-.13772,2.7356,2.7356,0,0,1-.62973-.32425,3.71573,3.71573,0,0,1-.86177-.823,3.67327,3.67327,0,0,1-.7495-1.537,2.1625,2.1625,0,0,1,.17026-1.41554A1.97746,1.97746,0,0,1,114.18286,116.04577Zm2.4818,1.03454a1.67192,1.67192,0,0,0-.704-.5492,1.3198,1.3198,0,0,0-.78122-.073.98726.98726,0,0,0-.41356.18571,1.22664,1.22664,0,0,0-.328.37559,1.05244,1.05244,0,0,0-.13354.44152,1.83836,1.83836,0,0,0,.02421.45238,2.2351,2.2351,0,0,0,.13562.45279,3.26032,3.26032,0,0,0,.45363.75743,2.72032,2.72032,0,0,0,.88639.77121,1.455,1.455,0,0,0,.94815.15774,1.20558,1.20558,0,0,0,.507-.23244,1.0775,1.0775,0,0,0,.4048-.59844,1.38462,1.38462,0,0,0-.01878-.71612,1.71219,1.71219,0,0,0-.29713-.54794Z"/><path class="cls-7" d="M123.10974,113.70461a2.45537,2.45537,0,0,1,.14022,1.32666,2.22246,2.22246,0,0,1-.68816,1.20146,2.474,2.474,0,0,1-.67063.47157,1.92087,1.92087,0,0,1-.70945.184,2.43187,2.43187,0,0,1-.6965-.06009,2.82768,2.82768,0,0,1-.67564-.2554,3.6333,3.6333,0,0,1-.93062-.7107,3.57022,3.57022,0,0,1-.901-1.44935,2.19418,2.19418,0,0,1,.03381-1.43432,2.15851,2.15851,0,0,1,.53083-.79249,2.25038,2.25038,0,0,1,.674-.46031,1.79516,1.79516,0,0,1,.71445-.154,2.524,2.524,0,0,1,.69817.09849,3.45935,3.45935,0,0,1,.68566.28461,4.61343,4.61343,0,0,1,1.03036.82129l-2.67543,2.59155a2.18313,2.18313,0,0,0,1.18852.67856,1.43192,1.43192,0,0,0,1.46563-1.92969Zm-2.03068-.82212a1.58871,1.58871,0,0,0-1.54867-.36891,1.18255,1.18255,0,0,0-.39937.25832,1.14308,1.14308,0,0,0-.35848.67189,1.58454,1.58454,0,0,0,.08221.75868,1.91393,1.91393,0,0,0,.29546.54794Z"/><path class="cls-7" d="M122.08188,109.38661a1.76007,1.76007,0,0,1-.05342-.43527,1.56327,1.56327,0,0,1,.07679-.45863,1.37173,1.37173,0,0,1,.23871-.449,1.63353,1.63353,0,0,1,.74157-.54627,1.88222,1.88222,0,0,1,.8818-.088,1.864,1.864,0,0,1-.10892-.88806,1.67631,1.67631,0,0,1,.37267-.85216,1.79034,1.79034,0,0,1,.4628-.41816,1.56,1.56,0,0,1,.52875-.20782,1.97829,1.97829,0,0,1,.54209-.02713,2.52256,2.52256,0,0,1,.54544.11226,2.87157,2.87157,0,0,1,.881.49745l2.54356,2.02149-.55169.694-2.51519-1.999a1.86819,1.86819,0,0,0-.98612-.444,1.03285,1.03285,0,0,0-1.01993,1.27157,1.761,1.761,0,0,0,.62932.84674l2.54356,2.02108-.5517.694-2.51518-1.999a1.86833,1.86833,0,0,0-.98613-.44319,1.02527,1.02527,0,0,0-1.01158,1.28075,1.86115,1.86115,0,0,0,.64935.86009l2.51518,1.99855-.55128.694-4.24455-3.37319.51956-.65353Z"/><path class="cls-7" d="M131.992,106.4203c.08055-.03547.13939-.06218.17569-.08012a.81958.81958,0,0,0,.14648-.10016.62489.62489,0,0,0,.1469-.16609.7854.7854,0,0,0-.00042-.71028,1.9892,1.9892,0,0,0-.1085-.22869c-.04382-.07971-.08639-.15191-.12728-.21575-.04132-.06427-.09473-.14022-.16025-.227-.06594-.0868-.11936-.15649-.16151-.20949s-.101-.126-.17694-.21868c-.076-.09306-.13187-.16192-.16818-.20782l-5.48274-.8096.49577-.83172,4.27628.651-2.65249-3.37611.4987-.83631,3.54012,4.57924c.12561.16234.20908.27126.25039.3251q.062.082.23161.31758a3.91336,3.91336,0,0,1,.23579.35472q.06573.12018.17945.33969a1.8462,1.8462,0,0,1,.15357.3781c.02671.10558.05008.22451.07011.35806a1.43013,1.43013,0,0,1,.00668.38852,1.27448,1.27448,0,0,1-.17862.52,1.48445,1.48445,0,0,1-.38143.41982,1.72188,1.72188,0,0,1-.47365.26333Z"/><path class="cls-8" d="M118.29231,84.36434a1.57393,1.57393,0,0,0,1.94463-.40558c1.40518-1.27363,3.21695-6.36869,3.21695-6.36869a18.12942,18.12942,0,0,0-2.86087,2.13474C119.135,81.09409,118.29231,84.36434,118.29231,84.36434Z"/><path class="cls-9" d="M112.9001,53.18134s-1.93149-2.71933-3.76223-2.91046a8.65794,8.65794,0,0,0-3.25674.3831,27.15939,27.15939,0,0,0,5.08572,2.94321A1.82479,1.82479,0,0,0,112.9001,53.18134Z"/><path class="cls-10" d="M116.29274,89.835a35.66348,35.66348,0,0,0,3.23055-13.39792c.15209.04681,1.00053.24507,1.81048-.86074,1.15151-1.57226,2.01882-6.9679,2.01882-6.9679a19.7375,19.7375,0,0,0-2.427,2.75412,11.46952,11.46952,0,0,0-1.38991,4.6658c.018-.48708.03339-.975.03339-1.46744a41.00625,41.00625,0,0,0-.50493-6.37008,1.90738,1.90738,0,0,0,1.37881-1.35106c.7377-1.85628.276-7.30668.276-7.30668a21.45292,21.45292,0,0,0-1.67782,3.37284,8.66259,8.66259,0,0,0-.37153,3.13342,39.59248,39.59248,0,0,0-1.69623-5.7669,1.96885,1.96885,0,0,0,1.21026-1.6632c.40243-1.98357-1.0306-7.22434-1.0306-7.22434a22.60728,22.60728,0,0,0-1.04206,3.67656,10.21366,10.21366,0,0,0,.39244,4.011,38.2165,38.2165,0,0,0-3.24823-6.15119,2.00957,2.00957,0,0,0,.93364-1.9227c.02767-2.032-2.41616-6.84319-2.41616-6.84319a23.12789,23.12789,0,0,0-.31112,3.82846,11.31691,11.31691,0,0,0,1.47864,4.47717,37.21554,37.21554,0,0,0-2.65069-3.4858,7.15534,7.15534,0,0,0-2.9977-3.77258,42.46356,42.46356,0,0,0-6.31568-3.06746s4.21952,4.028,6.40126,5.67623a8.608,8.608,0,0,0,2.79731,1.467,37.51761,37.51761,0,0,1,6.10568,9.98761,5.7117,5.7117,0,0,0-2.483-2.51237,8.36813,8.36813,0,0,0-3.20965-.33656,27.53086,27.53086,0,0,0,4.35376,3.99258,1.83763,1.83763,0,0,0,1.82528.09834,39.462,39.462,0,0,1,1.95073,7.25145c-.3-.98036-1.04873-3.03137-2.236-3.74835A8.47818,8.47818,0,0,0,113.414,62.976a28.91462,28.91462,0,0,0,3.54278,4.87054,1.81768,1.81768,0,0,0,1.84666.47283,40.71081,40.71081,0,0,1,.48856,6.24158q0,.93836-.04552,1.86312c-.03534-.431-.32823-3.47914-1.619-4.67367a8.95262,8.95262,0,0,0-2.83016-1.6916,30.72777,30.72777,0,0,0,2.65282,5.55985,1.8526,1.8526,0,0,0,1.79244.8625,36.45163,36.45163,0,0,1-1.20508,7.7067c.05-.693.17957-3.47127-.82392-4.83908a9.67254,9.67254,0,0,0-2.49776-2.2847,32.4333,32.4333,0,0,0,1.68374,6.04268,1.97986,1.97986,0,0,0,1.59529,1.24124,34.13338,34.13338,0,0,1-2.61331,6.69952c.21806-1.05234.52428-3.12639-.103-4.42416a10.46,10.46,0,0,0-2.07035-2.79361,33.65765,33.65765,0,0,0,.63575,6.30171,2.25636,2.25636,0,0,0,1.21183,1.51906,34.72675,34.72675,0,0,1-4.77025,6.71034c.38763-.90385,1.18037-3.03526.76656-4.53786a11.07317,11.07317,0,0,0-1.54793-3.19706,34.25279,34.25279,0,0,0-.49124,6.31919,2.364,2.364,0,0,0,.93789,1.77154c-.2459.26421-.48782.53084-.743.78941a38.33467,38.33467,0,0,1-4.13848,3.60977,6.80674,6.80674,0,0,0,1.54377-3.61856A11.40824,11.40824,0,0,0,105.928,95.956a33.98707,33.98707,0,0,0-2.11661,5.91935,2.47866,2.47866,0,0,0,.37856,1.89624,43.756,43.756,0,0,1-5.17582,3.17347c.71244-.52232,2.62385-2.05415,2.9482-3.66952a11.059,11.059,0,0,0,.03451-3.61088A34.13346,34.13346,0,0,0,98.635,104.961a2.28012,2.28012,0,0,0,.08677,2.13964,48.06511,48.06511,0,0,1-5.76458,2.49563c.95132-.47931,2.95552-1.63073,3.51513-3.06773a10.39715,10.39715,0,0,0,.61678-3.55824,36.46062,36.46062,0,0,0-4.38206,4.70836,2.16245,2.16245,0,0,0-.28457,2.10921A51.37422,51.37422,0,0,1,85.19,111.71434a21.36616,21.36616,0,0,0-4.60382,1.38862,21.36524,21.36524,0,0,0-4.60373-1.38862A51.37544,51.37544,0,0,1,68.75,109.78785a2.16248,2.16248,0,0,0-.28457-2.10921,36.4612,36.4612,0,0,0-4.38207-4.70836,10.3961,10.3961,0,0,0,.61688,3.55824c.55952,1.437,2.56372,2.58842,3.515,3.06773a48.07973,48.07973,0,0,1-5.76458-2.49563,2.27979,2.27979,0,0,0,.08678-2.13964,34.135,34.135,0,0,0-3.36174-5.29628,11.06051,11.06051,0,0,0,.03442,3.61088c.32435,1.61537,2.23576,3.1472,2.9482,3.66952a43.75521,43.75521,0,0,1-5.17582-3.17347,2.47866,2.47866,0,0,0,.37856-1.89624A33.98707,33.98707,0,0,0,55.24449,95.956a11.40662,11.40662,0,0,0-.68515,3.54121,6.806,6.806,0,0,0,1.54367,3.61856A38.34413,38.34413,0,0,1,51.96454,99.506c-.25515-.25857-.49708-.5252-.74288-.78941a2.36427,2.36427,0,0,0,.9378-1.77154,34.246,34.246,0,0,0-.49115-6.31919A11.07055,11.07055,0,0,0,50.12038,93.823c-.4139,1.5026.37884,3.634.76647,4.53786a34.72628,34.72628,0,0,1-4.77016-6.71034,2.25655,2.25655,0,0,0,1.21174-1.51906,33.66,33.66,0,0,0,.63584-6.30171,10.45924,10.45924,0,0,0-2.07044,2.79361c-.62724,1.29777-.321,3.37182-.103,4.42416A34.12807,34.12807,0,0,1,43.17765,84.348a1.97989,1.97989,0,0,0,1.5952-1.24124A32.42836,32.42836,0,0,0,46.45668,77.064a9.6737,9.6737,0,0,0-2.49785,2.2847c-1.00349,1.36781-.87388,4.14607-.82383,4.83908a36.44591,36.44591,0,0,1-1.20517-7.7067,1.8526,1.8526,0,0,0,1.79244-.8625,30.72116,30.72116,0,0,0,2.65281-5.55985,8.95263,8.95263,0,0,0-2.83015,1.6916C42.25418,72.9449,41.96129,75.993,41.926,76.424q-.044-.92519-.04552-1.86312a40.71081,40.71081,0,0,1,.48856-6.24158,1.81787,1.81787,0,0,0,1.84675-.47283A28.91792,28.91792,0,0,0,47.75843,62.976a8.47688,8.47688,0,0,0-3.06736,1.03513c-1.18731.717-1.93593,2.768-2.236,3.74835A39.462,39.462,0,0,1,44.40576,60.508a1.83761,1.83761,0,0,0,1.82528-.09834,27.53266,27.53266,0,0,0,4.35385-3.99258,8.36813,8.36813,0,0,0-3.20965.33656,5.71078,5.71078,0,0,0-2.483,2.51237,37.51732,37.51732,0,0,1,6.10559-9.98761,8.60611,8.60611,0,0,0,2.79731-1.467c2.18183-1.64821,6.40126-5.67623,6.40126-5.67623a42.46438,42.46438,0,0,0-6.31559,3.06746,7.15485,7.15485,0,0,0-2.9977,3.77258,37.21648,37.21648,0,0,0-2.65078,3.4858,11.31834,11.31834,0,0,0,1.47864-4.47717,23.12789,23.12789,0,0,0-.31112-3.82846s-2.44373,4.81114-2.41617,6.84319a2.01,2.01,0,0,0,.93365,1.9227,38.2165,38.2165,0,0,0-3.24823,6.15119,10.212,10.212,0,0,0,.39244-4.011,22.61213,22.61213,0,0,0-1.042-3.67656s-1.43312,5.24077-1.03069,7.22434a1.96886,1.96886,0,0,0,1.21025,1.6632,39.58251,39.58251,0,0,0-1.69622,5.7669,8.66455,8.66455,0,0,0-.37144-3.13342A21.46183,21.46183,0,0,0,40.4536,59.5331s-.46173,5.4504.27588,7.30668a1.90731,1.90731,0,0,0,1.3789,1.35106,40.99522,40.99522,0,0,0-.50493,6.37008c0,.49244.01526.98036.0333,1.46744a11.46952,11.46952,0,0,0-1.38991-4.6658,19.731,19.731,0,0,0-2.427-2.75412s.86731,5.39564,2.01882,6.9679c.80986,1.10581,1.65839.90755,1.81048.86074A35.66348,35.66348,0,0,0,44.8797,89.835a7.32233,7.32233,0,0,0-2.033-2.18071A16.85571,16.85571,0,0,0,39.67418,86.223s2.68223,4.58411,4.28678,5.50711a1.6151,1.6151,0,0,0,1.8893.0174,34.79862,34.79862,0,0,0,3.82356,5.63987,7.03854,7.03854,0,0,0-2.55438-1.59724,16.17062,16.17062,0,0,0-3.3943-.48523s3.666,3.68267,5.44115,4.118a1.64178,1.64178,0,0,0,1.83519-.52834c.2545.274.50549.55027.77.81819a38.0517,38.0517,0,0,0,3.08966,2.789,6.54308,6.54308,0,0,0-2.58195-.96094,16.30253,16.30253,0,0,0-3.43963.16532s4.20055,2.94173,6.04517,3.03018a1.73406,1.73406,0,0,0,1.74859-.867,43.76278,43.76278,0,0,0,4.93631,3.08633,9.03947,9.03947,0,0,0-4.03755-1.032,17.18591,17.18591,0,0,0-3.45453.742s4.70734,2.19237,6.61237,1.96414a1.78361,1.78361,0,0,0,1.68393-1.24634,48.23839,48.23839,0,0,0,5.29331,2.32143,9.95688,9.95688,0,0,0-4.26041-.35811,18.372,18.372,0,0,0-3.4573,1.25919s5.24789,1.4432,7.21676.92365a1.85215,1.85215,0,0,0,1.55745-1.44607,51.66245,51.66245,0,0,0,7.209,1.91474,21.3913,21.3913,0,0,1,4.3,1.26271,13.79446,13.79446,0,0,0-3.8922,2.62349c.10278.03358.205.06661.30575.09843a13.79367,13.79367,0,0,1,3.94-2.56668,13.79108,13.79108,0,0,1,3.94,2.56668c.10074-.03182.203-.06485.30575-.09843a13.79236,13.79236,0,0,0-3.8923-2.62349,21.39613,21.39613,0,0,1,4.3001-1.26271,51.65913,51.65913,0,0,0,7.209-1.91474,1.852,1.852,0,0,0,1.55745,1.44607c1.969.51955,7.21676-.92365,7.21676-.92365a18.37259,18.37259,0,0,0-3.45721-1.25919,9.95791,9.95791,0,0,0-4.2606.35811,48.22408,48.22408,0,0,0,5.29341-2.32143,1.78365,1.78365,0,0,0,1.684,1.24634c1.90493.22823,6.61237-1.96414,6.61237-1.96414a17.18766,17.18766,0,0,0-3.45462-.742,9.03947,9.03947,0,0,0-4.03755,1.032,43.76278,43.76278,0,0,0,4.93631-3.08633,1.7341,1.7341,0,0,0,1.7485.867c1.8448-.08845,6.04526-3.03018,6.04526-3.03018a16.30138,16.30138,0,0,0-3.43954-.16532,6.54206,6.54206,0,0,0-2.582.96094,38.08191,38.08191,0,0,0,3.08966-2.789c.2644-.26792.51539-.54417.76989-.81819a1.64176,1.64176,0,0,0,1.83518.52834c1.77524-.43536,5.44107-4.118,5.44107-4.118a16.171,16.171,0,0,0-3.39422.48523,7.03859,7.03859,0,0,0-2.55437,1.59724,34.79348,34.79348,0,0,0,3.82356-5.63987,1.61513,1.61513,0,0,0,1.8893-.0174c1.60455-.923,4.28687-5.50711,4.28687-5.50711a16.86006,16.86006,0,0,0-3.17273,1.43127A7.32322,7.32322,0,0,0,116.29274,89.835Z"/><path class="cls-11" d="M52.03466,50.27088c-1.83083.19113-3.76223,2.91046-3.76223,2.91046a1.82479,1.82479,0,0,0,1.93325.41585A27.16091,27.16091,0,0,0,55.29131,50.654,8.65811,8.65811,0,0,0,52.03466,50.27088Z"/><path class="cls-12" d="M42.88022,84.36434s-.84279-3.27025-2.3008-4.63953a18.12942,18.12942,0,0,0-2.86087-2.13474s1.81186,5.09506,3.21695,6.36869A1.574,1.574,0,0,0,42.88022,84.36434Z"/><polygon class="cls-13" points="135.219 77.143 136.561 79.669 134.87 81.975 137.687 81.479 139.358 83.8 139.756 80.968 142.481 80.096 139.91 78.842 139.922 75.981 137.935 78.039 135.219 77.143"/><polygon class="cls-14" points="134.801 62.886 133.315 63.073 134.518 63.966 134.236 65.438 135.458 64.57 136.77 65.292 136.322 63.862 137.415 62.837 135.916 62.822 135.279 61.466 134.801 62.886"/><polygon class="cls-15" points="135.23 69.271 136.682 70.777 135.957 72.74 137.838 71.824 139.48 73.12 139.19 71.048 140.931 69.887 138.871 69.522 138.304 67.508 137.32 69.355 135.23 69.271"/><polygon class="cls-16" points="132.288 94.878 130.969 95.589 132.413 95.987 132.682 97.461 133.508 96.211 134.993 96.411 134.058 95.239 134.707 93.889 133.304 94.415 132.22 93.381 132.288 94.878"/><polygon class="cls-17" points="134.989 86.346 135.425 88.392 133.771 89.674 135.852 89.892 136.561 91.86 137.411 89.949 139.502 89.883 137.946 88.484 138.53 86.475 136.719 87.522 134.989 86.346"/><polygon class="cls-18" points="27.077 74.919 25.584 77.359 27.133 79.764 24.351 79.098 22.543 81.314 22.316 78.463 19.65 77.427 22.292 76.331 22.452 73.475 24.311 75.649 27.077 74.919"/><polygon class="cls-19" points="28.355 60.713 29.828 60.99 28.573 61.809 28.765 63.295 27.598 62.354 26.244 62.996 26.778 61.596 25.749 60.507 27.246 60.582 27.964 59.267 28.355 60.713"/><polygon class="cls-20" points="27.542 67.061 26.001 68.477 26.606 70.479 24.784 69.452 23.067 70.646 23.481 68.595 21.814 67.331 23.892 67.091 24.58 65.115 25.45 67.018 27.542 67.061"/><polygon class="cls-21" points="28.931 92.798 30.204 93.588 28.738 93.898 28.381 95.354 27.633 94.055 26.138 94.165 27.142 93.052 26.576 91.665 27.944 92.276 29.089 91.308 28.931 92.798"/><polygon class="cls-22" points="26.75 84.119 26.191 86.135 27.764 87.515 25.674 87.606 24.848 89.529 24.115 87.569 22.032 87.377 23.669 86.075 23.208 84.034 24.952 85.189 26.75 84.119"/><path class="cls-23" d="M80.28188,92.14392C78.97736,84.03818,68.56945,78.85661,61.9901,78.93476V63.09585a24.92836,24.92836,0,0,0-4.795-.02144V83.2258c8.03731-.09534,18.07747,1.89083,23.08677,8.91812Z"/><path class="cls-23" d="M82.30058,92.14392c1.30453-8.10574,11.71243-13.28731,18.2917-13.20916V63.09585a24.92925,24.92925,0,0,1,4.79507-.02144V83.2258c-8.03731-.09534-18.07747,1.89083-23.08677,8.91812Z"/><path class="cls-24" d="M80.28188,85.2535v-16.67c-3.167-5.31144-5.14829-8.41544-15.776-9.3792V76.30077c7.391.78394,10.86623,2.99131,15.776,8.95273Z"/><path class="cls-25" d="M82.30058,85.2535v-16.67c3.167-5.31144,5.14826-8.41544,15.776-9.3792V76.30077c-7.391.78394-10.86626,2.99131-15.776,8.95273Z"/><path class="cls-26" d="M95.95454,71.12849a4.99767,4.99767,0,0,1-2.15636.4146s-2.46252-1.68693-3.683-1.81058c0,0-1.78474.53925-2.22169.5756l-1.593.71934a10.20716,10.20716,0,0,1-1.08757,1.3883s.236.68419,1.05244.2796l.14284-.22111s-.69531.424-.99866-.11622c0,0,.41957-.45863,1.07655-1.20013l1.49264-.70758a7.45572,7.45572,0,0,0,2.11037-.375,14.88285,14.88285,0,0,1,3.6684,1.69334A3.88386,3.88386,0,0,0,95.95454,71.12849Z"/><path class="cls-26" d="M90.26776,71.36059a1.44667,1.44667,0,0,1-.92484,1.05152,11.96727,11.96727,0,0,1-1.39162.28184,2.37393,2.37393,0,0,0-1.38089-.00168.46906.46906,0,0,0-.06835.83431c.18348.11374.25652.34221,2.6462-.01582,2.38958-.35768,3.068,1.22334,4.5054-.54691,0,0-.54852,1.44738-1.63846,1.13831a8.87385,8.87385,0,0,0-3.619-.35292c-1.37154.16645-2.04951.08868-2.17821-.59762l.62626-1.0018s.0923.2943.56335.25961c.47113-.03448,1.08618-.18838.88974-.59461,0,0,.07793.45441.47624.47416A1.644,1.644,0,0,0,90.26776,71.36059Z"/><path class="cls-26" d="M89.44543,72.22991a1.861,1.861,0,0,0,.14837-1.387,1.831,1.831,0,0,1,.10842,1.26522Z"/><path class="cls-26" d="M89.692,71.46436a1.31617,1.31617,0,0,1-1.36147-.02689s-1.05106.56888-1.34352.49128l.07033-.16687s.48313.06557,1.06106-.58157c0,0,.41085.49338,1.56888.05849Z"/><path class="cls-26" d="M89.882,72.47121a1.29919,1.29919,0,0,0,.61185-.83254A.75662.75662,0,0,1,89.882,72.47121Z"/><path class="cls-26" d="M86.48137,73.07648a.33024.33024,0,0,1,.30071-.31931,1.25276,1.25276,0,0,1,.5934.0409,1.43921,1.43921,0,0,1-.04455.75264s.04227-.49186-.06459-.62595C87.26634,72.92476,86.64144,72.71759,86.48137,73.07648Z"/><path class="cls-26" d="M85.96092,71.67949l.24716.26461s-.36253.46255-.64509.37236a.78331.78331,0,0,0,.521-.36874l-.22366-.16528Z"/><path class="cls-26" d="M86.26288,73.22311l-.40236.694s.3499.36492.734-.293A.42846.42846,0,0,1,86.26288,73.22311Z"/><path class="cls-26" d="M87.52811,73.77536a4.74091,4.74091,0,0,1,.09729.89367s.90575.37672.79222-1.02391l-.173.06587s.12545,1.12791-.54091.858a2.61408,2.61408,0,0,0-.08914-.82647Z"/><path class="cls-26" d="M87.78318,73.733s.26317.86237-.13728.63941l.00811.0668s.47413.27065.20732-.71575Z"/><path class="cls-26" d="M88.33058,74.23241s.43223.29837.47026-.60009l-.467.068Z"/><path class="cls-26" d="M84.60444,75.794c.667-1.03152.97927-1.06944.97927-1.06944q.33558-.75219.69139-1.44583l-.05715-.12714c-.25489.487-.5.978-.68669,1.398,0,0-.04782-.04481-.2732.19458a22.66146,22.66146,0,0,1,2.29758-4.005s-.6601,1.14985-1.20925,2.16913l.26939-.27546c3.74542-6.89439,8.659-9.24718,8.659-9.24718C88.44185,66.3881,84.60444,75.794,84.60444,75.794Z"/><path class="cls-26" d="M93.234,73.5381a1.7029,1.7029,0,0,1,.87243.05561c.57.15129.59667.02086.76607-.05051a.75211.75211,0,0,1-.72466.1809,2.02425,2.02425,0,0,0-1.18.06752Z"/><path class="cls-26" d="M87.88229,70.16784a2.2526,2.2526,0,0,1-.155-2.30123,2.13115,2.13115,0,0,0,.12385.46047,4.69318,4.69318,0,0,1,.40921-1.01178,2.34186,2.34186,0,0,0,.05572.36681,3.08552,3.08552,0,0,1,.4919-.79536,2.41922,2.41922,0,0,0-.38884,1.17889,1.19354,1.19354,0,0,1-.23025-.3116,2.02362,2.02362,0,0,0-.18067,1.02917,1.76534,1.76534,0,0,1-.29078-.44,2.4216,2.4216,0,0,0,.34832,1.56454Z"/><path class="cls-26" d="M88.19115,69.91525a2.50146,2.50146,0,0,0,1.41046-.49933c.68462-.51317.62516-.63057.96271-.73926a1.62547,1.62547,0,0,0-.79348.17542,7.60873,7.60873,0,0,0,.75558-.48777c.22641-.186.90829-.72128,1.38042-.65423.47215.06723.17281.39787.11963.42676a.37.37,0,0,0,.22007-.33205c-.00609-.237-.39868-.393-.81018-.24129-.41162.15187-1.75745,1.277-2.29069,1.54559L89.607,69.087a2.471,2.471,0,0,1-1.3291.70455Z"/><path class="cls-26" d="M91.024,67.523s1.74311-.74343,1.69051-.058C92.71449,67.46494,93.27423,66.38989,91.024,67.523Z"/><path class="cls-26" d="M89.07068,66.2551a6.42747,6.42747,0,0,1,.38154-.68008l-.004.33993a8.16741,8.16741,0,0,1,1.05639-1.27108l-.08506.41771s.6668-.5676,1.23948-.97666c0,0-.04915.15306-.06495.2116,0,0,.49315-.32015,1.00535-.57474A7.44355,7.44355,0,0,0,91.378,64.75285l.04989-.33432a5.00954,5.00954,0,0,0-1.19977,1.20931,1.45854,1.45854,0,0,1-.04184-.43619,5.19271,5.19271,0,0,0-.79541,1.183l-.03589-.48235Z"/><path class="cls-26" d="M94.54668,62.79511l-.15286.32413a7.54413,7.54413,0,0,1,2.0184-.24511l-.337.30119a1.44412,1.44412,0,0,1,.772.39283,5.87834,5.87834,0,0,0-2.07649.88593l.59768.07436a9.0961,9.0961,0,0,0-1.11291.622l.38994.04318a3.83315,3.83315,0,0,0-1.23019.68114,9.1961,9.1961,0,0,1,.75074-.62285l-.42773-.07263a5.69974,5.69974,0,0,1,1.16833-.538l-.49267-.14387a9.50059,9.50059,0,0,1,1.89024-1.02158,1.85853,1.85853,0,0,0-.65207-.05682l.26755-.40589a3.9467,3.9467,0,0,0-1.79879.37679Z"/><path class="cls-26" d="M88.91276,68.77513a1.64714,1.64714,0,0,1,.11393-1.48492,1.80362,1.80362,0,0,0-.00745,1.33632Z"/><path class="cls-26" d="M89.20674,68.4a1.35609,1.35609,0,0,1-.01739-.98238,1.362,1.362,0,0,0,.097.89348Z"/><path class="cls-26" d="M90.58958,67.02116s1.7964-.86284,2.28684-.4585c0,0-.51622-.52595-2.03912.16814Z"/><path class="cls-26" d="M91.3644,66.22562a2.9272,2.9272,0,0,1,1.4453-.1188,1.80317,1.80317,0,0,0-1.3361-.0077Z"/><path class="cls-26" d="M91.86189,65.84839a3.572,3.572,0,0,1,.84186-.0571,3.351,3.351,0,0,0-.76622-.06524Z"/><path class="cls-26" d="M92.33891,65.30365a3.66109,3.66109,0,0,1,.58966-1.203A3.49724,3.49724,0,0,0,92.494,65.183Z"/><path class="cls-26" d="M92.86436,64.8778a2.90708,2.90708,0,0,1,.34387-.70953,3.49284,3.49284,0,0,0-.25031.64165Z"/><path class="cls-26" d="M84.60444,75.794s1.82711,1.06608.681,2.18944l.20427.00759S86.87757,76.89527,84.60444,75.794Z"/><path class="cls-26" d="M86.441,75.66761c0,.07332-.218.13278-.48681.13278s-.48682-.05946-.48682-.13278.21794-.1328.48682-.1328S86.441,75.59427,86.441,75.66761Z"/><path class="cls-26" d="M87.51707,75.37142c0,.05133-.15256.09293-.34076.09293s-.34077-.0416-.34077-.09293.15256-.09292.34077-.09292S87.51707,75.32009,87.51707,75.37142Z"/><path class="cls-26" d="M71.79157,70.16416a1.42982,1.42982,0,0,1,.50309-1.18071A2.09518,2.09518,0,0,1,73.6499,68.577a2.03225,2.03225,0,0,1,1.57182.70455,2.52815,2.52815,0,0,1,.635,1.7576,2.38873,2.38873,0,0,1-.05461.52652l.81321-.00775V68.66983h.68112v5.67552h-.68112V72.185h-.95268a2.6955,2.6955,0,0,1-1.30838,1.3473,5.34138,5.34138,0,0,1-2.52395.55752,7.96912,7.96912,0,0,1-.90785-.05037,5.18484,5.18484,0,0,1-.86911-.17618,3.29039,3.29039,0,0,1-.74514-.3116,1.544,1.544,0,0,1-.511-.48,1.16846,1.16846,0,0,1-.19555-.66194.868.868,0,0,1,.23227-.58076.71917.71917,0,0,1,.56526-.26326h5.71408a1.9064,1.9064,0,0,0-.3948-1.79634,1.51482,1.51482,0,0,0-1.19252-.542,1.14866,1.14866,0,0,0-.88258.302.49788.49788,0,0,1,.34831-.11623.92191.92191,0,0,1,.656.25754.84364.84364,0,0,1,.273.64072.97656.97656,0,0,1-.29591.73739,1.03789,1.03789,0,0,1-.74938.28466,1.00335,1.00335,0,0,1-.78-.33687A1.19685,1.19685,0,0,1,71.79157,70.16416Zm-2.53188,2.29962a.58556.58556,0,0,0,.26326.45291,2.05208,2.05208,0,0,0,.65437.335,5.7962,5.7962,0,0,0,.79753.19537,4.36634,4.36634,0,0,0,.73167.06973,5.15091,5.15091,0,0,0,1.95113-.35034A2.48667,2.48667,0,0,0,74.904,72.185H69.5152Q69.25978,72.185,69.25969,72.46378Zm4.01054-2.18339a.41493.41493,0,0,0-.12767-.30772.4203.4203,0,0,0-.30588-.12582q-.3946,0-.3948.42579,0,.44913.41805.449Q73.2706,70.72168,73.27023,70.28039Z"/><g class="cls-27"><g class="cls-28"><g id="Pattern" class="cls-29"><path class="cls-30" d="M3.36859,103.43454q-.62487.2507-1.24588.509A19.85514,19.85514,0,0,1,.60109,96.30089H1.99543A19.15987,19.15987,0,0,0,3.36859,103.43454Z"/><path class="cls-30" d="M22.07242,97.99767c-.45369.08459-.90725.16958-1.35875.26035a10.00349,10.00349,0,0,1-.19341-1.95713H21.9146A9.30739,9.30739,0,0,0,22.07242,97.99767Z"/><path class="cls-30" d="M140.03526,195.89673c0-.236-.00731-.47029-.0089-.70587a98.89452,98.89452,0,0,0,98.21039-98.89h1.39434A99.5958,99.5958,0,0,1,140.03526,195.89673Z"/><path class="cls-30" d="M139.49047,185.4458c-.02689-.25788-.05936-.514-.08818-.77133a88.94787,88.94787,0,0,0,78.91529-88.37358h1.39434A89.64643,89.64643,0,0,1,139.49047,185.4458Z"/><path class="cls-30" d="M137.624,174.04308c-.06189-.27655-.12138-.554-.18565-.82977a79.00885,79.00885,0,0,0,60.96009-76.91242h1.39434A79.70342,79.70342,0,0,1,137.624,174.04308Z"/><path class="cls-30" d="M134.04922,161.81517c-.1077-.2956-.22078-.58862-.33119-.88295a69.04272,69.04272,0,0,0,44.76122-64.63133h1.39434A69.74428,69.74428,0,0,1,134.04922,161.81517Z"/><path class="cls-30" d="M128.33414,149.029c-.16154-.30231-.32256-.60488-.48709-.90533a59.04467,59.04467,0,0,0,30.713-51.82277h1.39434A59.74484,59.74484,0,0,1,128.33414,149.029Z"/><path class="cls-30" d="M120.11994,136.1385c-.22455-.29892-.45442-.59359-.68223-.88993a49.01694,49.01694,0,0,0,19.20321-38.94768h1.39434A49.72114,49.72114,0,0,1,120.11994,136.1385Z"/><path class="cls-30" d="M109.126,123.77573c-.29142-.2776-.589-.54857-.88375-.82266a39.00036,39.00036,0,0,0,10.47954-26.65218h1.39434A39.70276,39.70276,0,0,1,109.126,123.77573Z"/><path class="cls-30" d="M95.26288,112.74317c-.35715-.23591-.71224-.47454-1.07265-.70594a29.03357,29.03357,0,0,0,4.61235-15.73634h1.39434A29.73167,29.73167,0,0,1,95.26288,112.74317Z"/><path class="cls-30" d="M78.75613,103.94355q-.62069-.259-1.24588-.509a19.15967,19.15967,0,0,0,1.37316-7.13365h1.39435A19.855,19.855,0,0,1,78.75613,103.94355Z"/><path class="cls-30" d="M60.35859,96.30089a10.00273,10.00273,0,0,1-.19342,1.95713c-.4515-.09077-.90506-.17576-1.35875-.26035a9.3012,9.3012,0,0,0,.15783-1.69678Z"/><path class="cls-30" d="M40.43942,97.69523a98.89455,98.89455,0,0,0-98.89,98.21039c-.23558-.00159-.4699-.00889-.70587-.00889a99.59584,99.59584,0,1,1,199.19167,0c-.236,0-.47029.0073-.70587.00889A98.89457,98.89457,0,0,0,40.43942,97.69523Z"/><path class="cls-30" d="M40.43942,116.22006a89.64649,89.64649,0,0,1,89.14491,80.22146c-.25788.02689-.514.05936-.77133.08817a88.94038,88.94038,0,0,0-176.74715,0c-.25729-.02881-.51345-.06128-.77134-.08817A89.64649,89.64649,0,0,1,40.43942,116.22006Z"/><path class="cls-30" d="M40.43942,137.53357A79.00886,79.00886,0,0,0-36.473,198.49366c-.27574-.06421-.55322-.12377-.82976-.18565a79.69277,79.69277,0,0,1,155.48437,0c-.27655.06188-.554.12144-.82977.18565A79.00885,79.00885,0,0,0,40.43942,137.53357Z"/></g></g></g></svg>