<svg xmlns="http://www.w3.org/2000/svg" viewBox="0 0 140.13043 140.13043"><defs><style>.cls-1{fill:#4676ed;}.cls-2{fill:#fff;}</style></defs><title>fb</title><g id="Graphic_Elements" data-name="Graphic Elements"><path class="cls-1" d="M138.85222,70.91842a67.5,67.5,0,1,0-78.0469,66.6797v-47.168H43.66672V70.91842h17.1386V56.04732c0-16.9172,10.0774-26.2617,25.4957-26.2617a103.80486,103.80486,0,0,1,15.1098,1.3183v16.6114h-8.5117c-8.385,0-11,5.2031-11,10.5412v12.6619h18.7207l-2.9927,19.5117h-15.728v47.168A67.51618,67.51618,0,0,0,138.85222,70.91842Z"/><path class="cls-2" d="M98.62712,92.43012l2.9927-19.5117H82.89912V60.25652c0-5.3381,2.615-10.5412,11-10.5412h8.5117V33.10392a103.80486,103.80486,0,0,0-15.1098-1.3183c-15.4183,0-25.4957,9.3445-25.4957,26.2617v14.8711H44.66672v19.5117h17.1386v47.168a68.21284,68.21284,0,0,0,21.0938,0v-47.168Z"/></g></svg>