<svg xmlns="http://www.w3.org/2000/svg" viewBox="0 0 140.13043 140.13043"><defs><style>.cls-1{fill:#9146ff;}.cls-2{fill:#fff;}</style></defs><title>mail</title><g id="Graphic_Elements" data-name="Graphic Elements"><circle class="cls-1" cx="70.13043" cy="70.13043" r="68"/><path class="cls-2" d="M69.60171,105.1277q-17.45793,0-34.91586-.00314a9.56928,9.56928,0,0,1-9.6373-8.01648,8.67074,8.67074,0,0,1-.10479-1.588q-.008-22.34622-.00812-44.69243a10.0484,10.0484,0,0,1,.2712-2.36956c.1848-.76884.47989-1.01558,1.21751-.48641,1.161.83292,2.37216,1.596,3.56177,2.38912Q46.834,61.59362,63.6819,72.8265c4.24945,2.8331,7.81185,2.84636,12.0358.031q18.38516-12.254,36.76619-24.51417c1.45386-.96949,1.52428-.95175,1.84839.80224a9.88984,9.88984,0,0,1,.12841,1.78468q.00981,22.24645.00076,44.4929a9.51989,9.51989,0,0,1-9.74426,9.701Q87.15947,105.14156,69.60171,105.1277Z"/><path class="cls-2" d="M69.80075,41.13984q17.45574,0,34.91146-.00789a9.58373,9.58373,0,0,1,4.06619.82432c.32168.14709.79773.21756.85124.60478.05888.42606-.43427.53783-.7216.72979Q97.132,51.158,85.34548,59.00941q-6.51408,4.343-13.03,8.68323c-2.19624,1.45983-3.05287,1.44693-5.253-.01992Q48.84688,55.52844,30.63486,43.37888c-.31508-.21033-.86845-.32813-.82367-.76524.0484-.47242.62119-.53852,1.00148-.70591a9.67593,9.67593,0,0,1,3.97687-.77728Q52.29511,41.15511,69.80075,41.13984Z"/></g></svg>