<svg xmlns="http://www.w3.org/2000/svg" viewBox="0 0 140.13043 140.13043"><defs><style>.cls-1{fill:#c40027;}</style></defs><title>pin</title><g id="Graphic_Elements" data-name="Graphic Elements"><path class="cls-1" d="M70.14073,2.15326a67.57654,67.57654,0,0,0-24.6313,130.4959c-.6116-5.3377-1.112-13.5667.2224-19.4048,1.2233-5.2821,7.8954-33.5831,7.8954-33.5831a24.60827,24.60827,0,0,1-2.0016-10.0082c0-9.3966,5.4489-16.4023,12.2322-16.4023,5.7825,0,8.5626,4.3369,8.5626,9.5078,0,5.7825-3.6697,14.4563-5.6157,22.5184-1.6125,6.7278,3.3916,12.2323,10.0082,12.2323,12.0098,0,21.2396-12.6771,21.2396-30.9143,0-16.1799-11.6206-27.4669-28.2454-27.4669-19.238,0-30.525,14.4007-30.525,29.3018,0,5.7825,2.224,12.0098,5.0041,15.4015a2.01117,2.01117,0,0,1,.4448,1.946c-.5004,2.1129-1.668,6.7278-1.8904,7.673-.278,1.2232-1.0009,1.5012-2.2797.8896-8.4514-3.9477-13.7335-16.2355-13.7335-26.1881,0-21.2953,15.4572-40.8669,44.6478-40.8669,23.4081,0,41.6453,16.6804,41.6453,39.032,0,23.2969-14.6787,42.0345-35.0288,42.0345-6.8389,0-13.2887-3.5584-15.4571-7.7841,0,0-3.3917,12.8994-4.2257,16.0687-1.5012,5.8937-5.6157,13.2331-8.3958,17.7368A67.6159,67.6159,0,1,0,70.14073,2.15326Z"/></g></svg>