<svg xmlns="http://www.w3.org/2000/svg" viewBox="0 0 140.13043 140.13043"><defs><style>.cls-1{fill:#5a99ec;}.cls-2{fill:#fff;}</style></defs><title>twitter</title><g id="Graphic_Elements" data-name="Graphic Elements"><circle class="cls-1" cx="69.63043" cy="70.63043" r="67.5"/><path class="cls-2" d="M55.99143,109.50543c32.9681,0,50.997-27.3131,50.997-50.9969q0-1.1643-.0513-2.3172a36.46677,36.46677,0,0,0,8.9416-9.2803,35.77835,35.77835,0,0,1-10.2932,2.8215,17.98537,17.98537,0,0,0,7.8815-9.9148,35.92094,35.92094,0,0,1-11.3809,4.3506,17.93949,17.93949,0,0,0-30.5446,16.3462,50.88586,50.88586,0,0,1-36.9443-18.7264,17.93744,17.93744,0,0,0,5.5485,23.9279,17.79045,17.79045,0,0,1-8.1179-2.2422c-.0039.0748-.0039.1499-.0039.2286a17.93147,17.93147,0,0,0,14.3797,17.5719,17.89541,17.89541,0,0,1-8.0943.3071,17.94386,17.94386,0,0,0,16.7442,12.449,35.96605,35.96605,0,0,1-22.2612,7.6724,36.48252,36.48252,0,0,1-4.2757-.2482,50.74281,50.74281,0,0,0,27.4748,8.0508"/></g></svg>